<svg width="30" height="34" viewBox="0 0 30 34" fill="none" xmlns="http://www.w3.org/2000/svg">
<path d="M15 20.333C14.5278 20.333 14.1319 20.1733 13.8125 19.8538C13.4931 19.5344 13.3333 19.1386 13.3333 18.6663C13.3333 18.1941 13.4931 17.7983 13.8125 17.4788C14.1319 17.1594 14.5278 16.9997 15 16.9997C15.4722 16.9997 15.8681 17.1594 16.1875 17.4788C16.5069 17.7983 16.6667 18.1941 16.6667 18.6663C16.6667 19.1386 16.5069 19.5344 16.1875 19.8538C15.8681 20.1733 15.4722 20.333 15 20.333ZM8.33333 20.333C7.86111 20.333 7.46528 20.1733 7.14583 19.8538C6.82639 19.5344 6.66667 19.1386 6.66667 18.6663C6.66667 18.1941 6.82639 17.7983 7.14583 17.4788C7.46528 17.1594 7.86111 16.9997 8.33333 16.9997C8.80556 16.9997 9.20139 17.1594 9.52083 17.4788C9.84028 17.7983 10 18.1941 10 18.6663C10 19.1386 9.84028 19.5344 9.52083 19.8538C9.20139 20.1733 8.80556 20.333 8.33333 20.333ZM21.6667 20.333C21.1944 20.333 20.7986 20.1733 20.4792 19.8538C20.1597 19.5344 20 19.1386 20 18.6663C20 18.1941 20.1597 17.7983 20.4792 17.4788C20.7986 17.1594 21.1944 16.9997 21.6667 16.9997C22.1389 16.9997 22.5347 17.1594 22.8542 17.4788C23.1736 17.7983 23.3333 18.1941 23.3333 18.6663C23.3333 19.1386 23.1736 19.5344 22.8542 19.8538C22.5347 20.1733 22.1389 20.333 21.6667 20.333ZM15 26.9997C14.5278 26.9997 14.1319 26.84 13.8125 26.5205C13.4931 26.2011 13.3333 25.8052 13.3333 25.333C13.3333 24.8608 13.4931 24.465 13.8125 24.1455C14.1319 23.8261 14.5278 23.6663 15 23.6663C15.4722 23.6663 15.8681 23.8261 16.1875 24.1455C16.5069 24.465 16.6667 24.8608 16.6667 25.333C16.6667 25.8052 16.5069 26.2011 16.1875 26.5205C15.8681 26.84 15.4722 26.9997 15 26.9997ZM8.33333 26.9997C7.86111 26.9997 7.46528 26.84 7.14583 26.5205C6.82639 26.2011 6.66667 25.8052 6.66667 25.333C6.66667 24.8608 6.82639 24.465 7.14583 24.1455C7.46528 23.8261 7.86111 23.6663 8.33333 23.6663C8.80556 23.6663 9.20139 23.8261 9.52083 24.1455C9.84028 24.465 10 24.8608 10 25.333C10 25.8052 9.84028 26.2011 9.52083 26.5205C9.20139 26.84 8.80556 26.9997 8.33333 26.9997ZM21.6667 26.9997C21.1944 26.9997 20.7986 26.84 20.4792 26.5205C20.1597 26.2011 20 25.8052 20 25.333C20 24.8608 20.1597 24.465 20.4792 24.1455C20.7986 23.8261 21.1944 23.6663 21.6667 23.6663C22.1389 23.6663 22.5347 23.8261 22.8542 24.1455C23.1736 24.465 23.3333 24.8608 23.3333 25.333C23.3333 25.8052 23.1736 26.2011 22.8542 26.5205C22.5347 26.84 22.1389 26.9997 21.6667 26.9997ZM3.33333 33.6663C2.41667 33.6663 1.63194 33.34 0.979167 32.6872C0.326389 32.0344 0 31.2497 0 30.333V6.99967C0 6.08301 0.326389 5.29829 0.979167 4.64551C1.63194 3.99273 2.41667 3.66634 3.33333 3.66634H5V0.333008H8.33333V3.66634H21.6667V0.333008H25V3.66634H26.6667C27.5833 3.66634 28.3681 3.99273 29.0208 4.64551C29.6736 5.29829 30 6.08301 30 6.99967V30.333C30 31.2497 29.6736 32.0344 29.0208 32.6872C28.3681 33.34 27.5833 33.6663 26.6667 33.6663H3.33333ZM3.33333 30.333H26.6667V13.6663H3.33333V30.333Z" fill="#8720CC"/>
</svg>
