<svg width="61" height="61" viewBox="0 0 61 61" fill="none" xmlns="http://www.w3.org/2000/svg">
<path d="M16.798 43.3618C20.0025 47.426 24.9705 50.0353 30.548 50.0353C35.4447 50.0353 39.8717 48.024 43.048 44.7825M21.798 17.3765C24.372 15.8875 27.3605 15.0353 30.548 15.0353C35.4447 15.0353 39.8717 17.0464 43.048 20.2878" stroke="white" stroke-width="3" stroke-linecap="round"/>
<path d="M40.548 32.5353C40.548 38.058 36.0707 42.5353 30.548 42.5353C25.0251 42.5353 20.548 38.058 20.548 32.5353C20.548 27.0125 25.0251 22.5353 30.548 22.5353C36.0707 22.5353 40.548 27.0125 40.548 32.5353Z" fill="white" stroke="white" stroke-width="3"/>
<path d="M15.548 17.5353C15.548 20.987 13.3094 22.5353 10.548 22.5353C7.78655 22.5353 5.54797 20.987 5.54797 17.5353C5.54797 14.0835 7.78655 10.0353 10.548 10.0353C13.3094 10.0353 15.548 14.0835 15.548 17.5353Z" fill="white" stroke="white" stroke-width="3"/>
<path d="M49.298 32.5353V10.0353H50.548C53.3095 10.0353 55.548 12.2739 55.548 15.0353V32.5353H49.298ZM49.298 32.5353V50.0353V32.5353Z" fill="white"/>
<path d="M49.298 32.5353V10.0353H50.548C53.3095 10.0353 55.548 12.2739 55.548 15.0353V32.5353H49.298ZM49.298 32.5353V50.0353" stroke="white" stroke-width="3" stroke-linecap="round" stroke-linejoin="round"/>
<path d="M10.548 22.5353V50.0353" stroke="white" stroke-width="3" stroke-linecap="round" stroke-linejoin="round"/>
</svg>
