<?xml version="1.0" encoding="UTF-8"?>
<svg version="1.1" xmlns="http://www.w3.org/2000/svg" width="94" height="94">
<path d="M0 0 C0.85464844 0.00644531 1.70929687 0.01289063 2.58984375 0.01953125 C5.0625 0.1875 5.0625 0.1875 7.25390625 0.76171875 C9.1482811 1.41139148 9.1482811 1.41139148 11.0625 0.1875 C16.01090293 -0.34675235 19.85312061 -0.53812764 24.1875 2.0625 C26.0625 4.1875 26.0625 4.1875 26.0625 6.1875 C27.609375 6.2184375 27.609375 6.2184375 29.1875 6.25 C33.64320299 7.32799266 35.1603318 8.49829104 37.921875 12.015625 C39.62812394 15.26450997 39.64637885 18.33273695 39.7890625 21.94921875 C39.89243187 24.4236897 39.89243187 24.4236897 42.0625 26.6875 C42.7225 27.1825 43.3825 27.6775 44.0625 28.1875 C46.39297967 32.84845933 45.60185242 39.13034613 45.0625 44.1875 C43.98046875 46.09375 43.98046875 46.09375 42.625 47.4375 C39.73985944 50.53374841 39.7687755 51.11725785 39.625 55.125 C39.357096 59.91830932 38.14133704 62.48031419 34.8203125 65.9296875 C32.12120913 67.86104591 29.30127313 67.87607951 26.0625 68.1875 C24.7455333 70.07120471 24.7455333 70.07120471 24.0625 72.1875 C20.8138419 74.35327207 19.87648653 74.43705466 16.125 74.375 C15.27035156 74.36855469 14.41570313 74.36210938 13.53515625 74.35546875 C11.0625 74.1875 11.0625 74.1875 8.87109375 73.61328125 C6.9767189 72.96360852 6.9767189 72.96360852 5.0625 74.1875 C0.11409707 74.72175235 -3.72812061 74.91312764 -8.0625 72.3125 C-9.9375 70.1875 -9.9375 70.1875 -9.9375 68.1875 C-10.96875 68.166875 -12 68.14625 -13.0625 68.125 C-17.50059942 67.05126627 -19.09057782 65.88533859 -21.84765625 62.375 C-23.80557233 58.4451326 -23.40152544 54.45825265 -22.9375 50.1875 C-23.9275 49.8575 -24.9175 49.5275 -25.9375 49.1875 C-29.02061349 45.25037854 -29.3443368 42.11159122 -29.3125 37.1875 C-29.32023437 35.99125 -29.32796875 34.795 -29.3359375 33.5625 C-28.91055241 29.95923805 -28.10522384 28.06369943 -25.9375 25.1875 C-25.2775 24.8575 -24.6175 24.5275 -23.9375 24.1875 C-23.69783539 22.06096986 -23.69783539 22.06096986 -23.6875 19.5625 C-23.28169802 14.68587967 -22.08050511 11.96133381 -18.6953125 8.4453125 C-15.99620913 6.51395409 -13.17627313 6.49892049 -9.9375 6.1875 C-8.6205333 4.30379529 -8.6205333 4.30379529 -7.9375 2.1875 C-4.6888419 0.02172793 -3.75148653 -0.06205466 0 0 Z M-1.9375 8.1875 C-2.5975 9.8375 -3.2575 11.4875 -3.9375 13.1875 C-5.92317708 13.35026042 -7.90885417 13.51302083 -9.89453125 13.67578125 C-12.48158195 14.32378056 -13.43004985 14.98393433 -14.9375 17.1875 C-15.07463885 19.76913632 -15.07463885 19.76913632 -14.75 22.5625 C-14.56633177 27.75282806 -14.56633177 27.75282806 -16.26171875 29.73828125 C-16.81472656 30.11339844 -17.36773437 30.48851563 -17.9375 30.875 C-21.00689406 32.78901584 -21.00689406 32.78901584 -21.546875 35.08203125 C-21.69877294 37.35628097 -21.63675991 39.01351886 -20.9375 41.1875 C-19.40355073 42.36991923 -17.864543 43.54948832 -16.26171875 44.63671875 C-14.28122642 46.95605637 -14.64426776 48.82458513 -14.75 51.8125 C-14.83894531 52.75351563 -14.92789062 53.69453125 -15.01953125 54.6640625 C-15.16332549 57.20206676 -15.16332549 57.20206676 -13.7109375 58.98046875 C-11.62984212 60.3968971 -10.24534774 60.6704633 -7.75 60.875 C-6.491875 60.978125 -5.23375 61.08125 -3.9375 61.1875 C-3.2775 62.8375 -2.6175 64.4875 -1.9375 66.1875 C-0.2875 66.1875 1.3625 66.1875 3.0625 66.1875 C4.60836876 63.09576248 4.35609521 60.59320448 4.0625 57.1875 C1.84386971 54.28032927 0.54305071 53.34768357 -2.9375 52.1875 C-2.9375 50.5375 -2.9375 48.8875 -2.9375 47.1875 C0.5275 46.6925 0.5275 46.6925 4.0625 46.1875 C4.0625 40.9075 4.0625 35.6275 4.0625 30.1875 C0.7625 30.1875 -2.5375 30.1875 -5.9375 30.1875 C-5.9375 28.5375 -5.9375 26.8875 -5.9375 25.1875 C-4.844375 24.795625 -3.75125 24.40375 -2.625 24 C0.05239132 22.84015841 1.06707714 22.18203697 3 19.875 C4.24358359 16.72946504 4.4272234 14.54295524 4.0625 11.1875 C3.4025 10.1975 2.7425 9.2075 2.0625 8.1875 C0.7425 8.1875 -0.5775 8.1875 -1.9375 8.1875 Z M13.0625 8.1875 C11.58339424 10.53666798 11.03440004 11.82220047 11.25 14.625 C12.39580717 18.23869954 13.35586917 21.23345916 16.81640625 23.16796875 C18.53761565 23.90861037 20.2986219 24.55516634 22.0625 25.1875 C22.0625 26.8375 22.0625 28.4875 22.0625 30.1875 C18.4325 30.1875 14.8025 30.1875 11.0625 30.1875 C11.0625 41.0775 11.0625 51.9675 11.0625 63.1875 C11.7225 63.1875 12.3825 63.1875 13.0625 63.1875 C13.3925 64.1775 13.7225 65.1675 14.0625 66.1875 C16.5375 65.6925 16.5375 65.6925 19.0625 65.1875 C19.3925 63.8675 19.7225 62.5475 20.0625 61.1875 C21.9496875 61.0328125 21.9496875 61.0328125 23.875 60.875 C26.47544583 60.54361575 27.84808099 60.32821247 30.0625 58.875 C31.40236826 56.94089637 31.40236826 56.94089637 31.0625 53.1875 C30.36382812 53.06632812 29.66515625 52.94515625 28.9453125 52.8203125 C28.03523438 52.65273437 27.12515625 52.48515625 26.1875 52.3125 C25.28257813 52.15007812 24.37765625 51.98765625 23.4453125 51.8203125 C21.0625 51.1875 21.0625 51.1875 19.0625 49.1875 C18.9375 46.5625 18.9375 46.5625 19.0625 44.1875 C21.06204746 44.14495644 23.06291636 44.14669217 25.0625 44.1875 C25.3925 44.5175 25.7225 44.8475 26.0625 45.1875 C29.84549385 45.54438621 32.21662807 45.70803657 35.5 43.6875 C37.2959782 40.81393488 37.73807639 38.50521402 37.6015625 35.1171875 C36.80552901 32.26761836 34.73994394 31.33452491 32.38671875 29.73828125 C30.40622642 27.41894363 30.76926776 25.55041487 30.875 22.5625 C30.96394531 21.62148438 31.05289063 20.68046875 31.14453125 19.7109375 C31.28832549 17.17293324 31.28832549 17.17293324 29.8359375 15.39453125 C27.75484212 13.9781029 26.37034774 13.7045367 23.875 13.5 C21.9878125 13.3453125 21.9878125 13.3453125 20.0625 13.1875 C19.4025 11.5375 18.7425 9.8875 18.0625 8.1875 C16.4125 8.1875 14.7625 8.1875 13.0625 8.1875 Z " fill="#FFFFFF" transform="translate(41.9375,12.8125)"/>
</svg>
