<svg width="24" height="34" viewBox="0 0 24 34" fill="none" xmlns="http://www.w3.org/2000/svg">
<path d="M12.0026 11.9997C10.3915 11.9997 9.01649 11.4302 7.8776 10.2913C6.73872 9.15245 6.16927 7.77745 6.16927 6.16634C6.16927 4.55523 6.73872 3.18023 7.8776 2.04134C9.01649 0.902452 10.3915 0.333008 12.0026 0.333008C13.6137 0.333008 14.9887 0.902452 16.1276 2.04134C17.2665 3.18023 17.8359 4.55523 17.8359 6.16634C17.8359 7.77745 17.2665 9.15245 16.1276 10.2913C14.9887 11.4302 13.6137 11.9997 12.0026 11.9997ZM12.0026 33.6663L2.0026 23.6663C1.44705 23.1108 1.03038 22.4858 0.752604 21.7913C0.474826 21.0969 0.335938 20.333 0.335938 19.4997C0.335938 17.8608 0.898438 16.4788 2.02344 15.3538C3.14844 14.2288 4.53038 13.6663 6.16927 13.6663C6.97483 13.6663 7.71788 13.8191 8.39844 14.1247C9.07899 14.4302 9.69705 14.8608 10.2526 15.4163L12.0026 17.1663L13.7526 15.4163C14.3082 14.8608 14.9262 14.4302 15.6068 14.1247C16.2873 13.8191 17.0304 13.6663 17.8359 13.6663C19.4748 13.6663 20.8568 14.2288 21.9818 15.3538C23.1068 16.4788 23.6693 17.8608 23.6693 19.4997C23.6693 20.333 23.5304 21.0969 23.2526 21.7913C22.9748 22.4858 22.5582 23.1108 22.0026 23.6663L12.0026 33.6663Z" fill="#8720CC"/>
</svg>
