<svg width="48" height="48" viewBox="0 0 48 48" fill="none" xmlns="http://www.w3.org/2000/svg">
<circle cx="24" cy="24" r="24" fill="#8720CC" fill-opacity="0.5"/>
<mask id="mask0_1264_5456" style="mask-type:alpha" maskUnits="userSpaceOnUse" x="0" y="0" width="48" height="48">
<rect width="48" height="48" fill="#D9D9D9"/>
</mask>
<g mask="url(#mask0_1264_5456)">
<path d="M20.0016 27.1996L31.8016 15.3996C32.1682 15.0329 32.6349 14.8496 33.2016 14.8496C33.7682 14.8496 34.2349 15.0329 34.6016 15.3996C34.9682 15.7663 35.1516 16.2329 35.1516 16.7996C35.1516 17.3663 34.9682 17.8329 34.6016 18.1996L21.4016 31.3996C21.0016 31.7996 20.5349 31.9996 20.0016 31.9996C19.4682 31.9996 19.0016 31.7996 18.6016 31.3996L13.4016 26.1996C13.0349 25.8329 12.8516 25.3663 12.8516 24.7996C12.8516 24.2329 13.0349 23.7663 13.4016 23.3996C13.7682 23.0329 14.2349 22.8496 14.8016 22.8496C15.3682 22.8496 15.8349 23.0329 16.2016 23.3996L20.0016 27.1996Z" fill="white"/>
</g>
</svg>
