<svg width="37" height="42" viewBox="0 0 37 42" fill="none" xmlns="http://www.w3.org/2000/svg">
<path d="M12.4787 31.6997L18.4193 25.7591L24.3598 31.6997L27.5586 28.5009L21.618 22.5604L27.5586 16.6198L24.3598 13.4211L18.4193 19.3616L12.4787 13.4211L9.27995 16.6198L15.2205 22.5604L9.27995 28.5009L12.4787 31.6997ZM6.99512 41.9814C5.73846 41.9814 4.66269 41.534 3.76779 40.6391C2.8729 39.7442 2.42546 38.6684 2.42546 37.4118V7.70898H0.140625V3.13932H11.5648V0.854492H25.2738V3.13932H36.6979V7.70898H34.4131V37.4118C34.4131 38.6684 33.9656 39.7442 33.0708 40.6391C32.1759 41.534 31.1001 41.9814 29.8434 41.9814H6.99512Z" fill="#8720CC"/>
</svg>
