<svg width="31" height="40" viewBox="0 0 31 40" fill="none" xmlns="http://www.w3.org/2000/svg">
<path d="M2 20C2 14.0825 2 11.1238 3.63433 9.13237C3.93352 8.7678 4.2678 8.43352 4.63237 8.13433C6.6238 6.5 9.58254 6.5 15.5 6.5C21.4175 6.5 24.3762 6.5 26.3677 8.13433C26.7322 8.43352 27.0664 8.7678 27.3656 9.13237C29 11.1238 29 14.0825 29 20C29 25.9175 29 28.8762 27.3656 30.8677C27.0664 31.2322 26.7322 31.5664 26.3677 31.8656C24.3762 33.5 21.4175 33.5 15.5 33.5C9.58254 33.5 6.6238 33.5 4.63237 31.8656C4.2678 31.5664 3.93352 31.2322 3.63433 30.8677C2 28.8762 2 25.9175 2 20Z" stroke="#8720CC" stroke-width="2.7"/>
<path d="M10.1016 38H20.9016" stroke="#8720CC" stroke-width="2.7" stroke-linecap="round"/>
<path d="M10.1016 2H20.9016" stroke="#8720CC" stroke-width="2.7" stroke-linecap="round"/>
<path d="M10.8017 15.1966C12.4912 14.2096 13.9658 14.6074 14.8515 15.2409C15.2148 15.5007 15.3962 15.6306 15.5031 15.6306C15.6101 15.6306 15.7915 15.5007 16.1547 15.2409C17.0405 14.6074 18.5151 14.2096 20.2046 15.1966C22.4218 16.4919 22.9235 20.7651 17.8093 24.3701C16.8351 25.0568 16.3481 25.4001 15.5031 25.4001C14.6582 25.4001 14.1711 25.0568 13.197 24.3701C8.08282 20.7651 8.58451 16.4919 10.8017 15.1966Z" stroke="#8720CC" stroke-width="2.7" stroke-linecap="round"/>
</svg>
