<svg width="16" height="16" viewBox="0 0 16 16" fill="none" xmlns="http://www.w3.org/2000/svg">
<path d="M7.42344 3.29688H3.22344C2.90518 3.29688 2.59995 3.4233 2.37491 3.64835C2.14987 3.87339 2.02344 4.17862 2.02344 4.49688V12.8969C2.02344 13.2151 2.14987 13.5204 2.37491 13.7454C2.59995 13.9704 2.90518 14.0969 3.22344 14.0969H11.6234C11.9417 14.0969 12.2469 13.9704 12.472 13.7454C12.697 13.5204 12.8234 13.2151 12.8234 12.8969V8.69688" stroke="#C5C5D1" stroke-width="1.2" stroke-linecap="round" stroke-linejoin="round"/>
<path d="M11.925 2.39672C12.1637 2.15802 12.4874 2.02393 12.825 2.02393C13.1626 2.02393 13.4863 2.15802 13.725 2.39672C13.9637 2.63541 14.0978 2.95915 14.0978 3.29672C14.0978 3.63428 13.9637 3.95802 13.725 4.19672L8.025 9.89672L5.625 10.4967L6.225 8.09672L11.925 2.39672Z" stroke="#C5C5D1" stroke-width="1.2" stroke-linecap="round" stroke-linejoin="round"/>
</svg>
