<svg width="18" height="18" viewBox="0 0 18 18" fill="none" xmlns="http://www.w3.org/2000/svg">
<mask id="mask0_1264_5786" style="mask-type:alpha" maskUnits="userSpaceOnUse" x="0" y="0" width="18" height="18">
<rect x="0.25" y="0.25" width="17.5" height="17.5" fill="#D9D9D9"/>
</mask>
<g mask="url(#mask0_1264_5786)">
<path d="M2.4375 15.5625V12.4635L12.0625 2.85677C12.2083 2.72309 12.3694 2.61979 12.5456 2.54688C12.7218 2.47396 12.9071 2.4375 13.1016 2.4375C13.296 2.4375 13.4844 2.47396 13.6667 2.54688C13.849 2.61979 14.0069 2.72917 14.1406 2.875L15.1432 3.89583C15.2891 4.02951 15.3954 4.1875 15.4622 4.36979C15.5291 4.55208 15.5625 4.73438 15.5625 4.91667C15.5625 5.11111 15.5291 5.29644 15.4622 5.47266C15.3954 5.64887 15.2891 5.8099 15.1432 5.95573L5.53646 15.5625H2.4375ZM13.0833 5.9375L14.1042 4.91667L13.0833 3.89583L12.0625 4.91667L13.0833 5.9375Z" fill="white"/>
</g>
</svg>
