<svg width="32" height="32" viewBox="0 0 32 32" fill="none" xmlns="http://www.w3.org/2000/svg">
<mask id="mask0_2948_4639" style="mask-type:alpha" maskUnits="userSpaceOnUse" x="0" y="0" width="32" height="32">
<rect width="32" height="32" fill="#D9D9D9"/>
</mask>
<g mask="url(#mask0_2948_4639)">
<path d="M8.00016 29.3337C7.26683 29.3337 6.63905 29.0725 6.11683 28.5503C5.59461 28.0281 5.3335 27.4003 5.3335 26.667V5.33366C5.3335 4.60033 5.59461 3.97255 6.11683 3.45033C6.63905 2.9281 7.26683 2.66699 8.00016 2.66699H18.6668L26.6668 10.667V26.667C26.6668 27.4003 26.4057 28.0281 25.8835 28.5503C25.3613 29.0725 24.7335 29.3337 24.0002 29.3337H8.00016ZM17.3335 12.0003V5.33366H8.00016V26.667H24.0002V12.0003H17.3335Z" fill="white"/>
</g>
</svg>
