<svg width="20" height="20" viewBox="0 0 20 20" fill="none" xmlns="http://www.w3.org/2000/svg">
<path d="M9.60498 15.8536C12.8698 15.8536 15.4909 13.2405 15.4909 9.97574C15.4909 6.71095 12.8535 4.09428 9.59686 4.09428C6.32842 4.09428 3.72352 6.70283 3.72352 9.97574C3.72352 13.2405 6.33654 15.8536 9.60498 15.8536ZM9.62121 2.14807C10.1213 2.14807 10.5182 1.7511 10.5182 1.2547C10.5182 0.754643 10.1213 0.361328 9.62121 0.361328C9.12481 0.361328 8.72785 0.754643 8.72785 1.2547C8.72785 1.7511 9.12481 2.14807 9.62121 2.14807ZM13.9768 3.32048C14.4733 3.32048 14.8703 2.92352 14.8703 2.42711C14.8703 1.92705 14.4733 1.53374 13.9768 1.53374C13.4768 1.53374 13.0834 1.92705 13.0834 2.42711C13.0834 2.92352 13.4768 3.32048 13.9768 3.32048ZM17.1727 6.50818C17.6691 6.50818 18.066 6.11121 18.066 5.62293C18.066 5.12286 17.6691 4.72956 17.1727 4.72956C16.6807 4.72956 16.2874 5.12286 16.2874 5.62293C16.2874 6.11121 16.6807 6.50818 17.1727 6.50818ZM18.3532 10.8764C18.8415 10.8764 19.2385 10.4831 19.2385 9.98303C19.2385 9.48297 18.8415 9.08967 18.3532 9.08967C17.8531 9.08967 17.4599 9.48297 17.4599 9.98303C17.4599 10.4831 17.8531 10.8764 18.3532 10.8764ZM17.1727 15.2366C17.6691 15.2366 18.066 14.8432 18.066 14.3432C18.066 13.8549 17.6691 13.4579 17.1727 13.4579C16.6807 13.4579 16.2874 13.8549 16.2874 14.3432C16.2874 14.8432 16.6807 15.2366 17.1727 15.2366ZM13.9768 18.4323C14.4733 18.4323 14.8703 18.0391 14.8703 17.5389C14.8703 17.0426 14.4733 16.6456 13.9768 16.6456C13.4768 16.6456 13.0834 17.0426 13.0834 17.5389C13.0834 18.0391 13.4768 18.4323 13.9768 18.4323ZM9.62121 19.6048C10.1213 19.6048 10.5182 19.2114 10.5182 18.7114C10.5182 18.2149 10.1213 17.8181 9.62121 17.8181C9.12481 17.8181 8.72785 18.2149 8.72785 18.7114C8.72785 19.2114 9.12481 19.6048 9.62121 19.6048ZM5.26111 18.4323C5.76117 18.4323 6.15449 18.0391 6.15449 17.5389C6.15449 17.0426 5.76117 16.6456 5.26111 16.6456C4.7647 16.6456 4.36774 17.0426 4.36774 17.5389C4.36774 18.0391 4.7647 18.4323 5.26111 18.4323ZM2.06529 15.2366C2.56534 15.2366 2.95866 14.8432 2.95866 14.3432C2.95866 13.8549 2.56534 13.4579 2.06529 13.4579C1.56889 13.4579 1.17192 13.8549 1.17192 14.3432C1.17192 14.8432 1.56889 15.2366 2.06529 15.2366ZM0.892883 10.8764C1.39294 10.8764 1.78626 10.4831 1.78626 9.98303C1.78626 9.48297 1.39294 9.08967 0.892883 9.08967C0.396474 9.08967 -0.000488281 9.48297 -0.000488281 9.98303C-0.000488281 10.4831 0.396474 10.8764 0.892883 10.8764ZM2.06529 6.50818C2.56534 6.50818 2.95866 6.11121 2.95866 5.62293C2.95866 5.12286 2.56534 4.72956 2.06529 4.72956C1.56889 4.72956 1.17192 5.12286 1.17192 5.62293C1.17192 6.11121 1.56889 6.50818 2.06529 6.50818ZM5.26111 3.32048C5.76117 3.32048 6.15449 2.92352 6.15449 2.42711C6.15449 1.92705 5.76117 1.53374 5.26111 1.53374C4.7647 1.53374 4.36774 1.92705 4.36774 2.42711C4.36774 2.92352 4.7647 3.32048 5.26111 3.32048Z" fill="white" fill-opacity="0.85"/>
</svg>
