<svg width="15" height="22" viewBox="0 0 15 22" fill="none" xmlns="http://www.w3.org/2000/svg">
<path d="M2.7926 16.4072L2.78906 19.5335C2.789 19.5992 2.80187 19.6642 2.82695 19.7249C2.85203 19.7855 2.88882 19.8407 2.93522 19.8871C2.98163 19.9336 3.03673 19.9704 3.09738 19.9956C3.15803 20.0207 3.22305 20.0337 3.2887 20.0337H4.74564C4.87811 20.0335 5.00512 19.9808 5.09879 19.8872C5.19246 19.7935 5.24515 19.6665 5.24528 19.534V18.7299" stroke="white" stroke-width="0.8" stroke-miterlimit="10"/>
<path d="M5.24764 6.2137V5.29938C5.24764 5.21897 5.27343 4.97927 5.32198 4.91504L6.53568 2.95593C6.56753 2.9135 6.58994 2.86474 6.60141 2.81294C6.61288 2.76113 6.61314 2.70747 6.60217 2.65556C6.5912 2.60365 6.56926 2.55468 6.53782 2.51194C6.50638 2.4692 6.46616 2.43367 6.41987 2.40775L5.56826 1.9344C5.48321 1.88719 5.38303 1.87521 5.28924 1.90102C5.19545 1.92683 5.11552 1.98838 5.0666 2.07246L4.34647 3.58554C4.20791 3.96381 3.86908 3.95723 3.71585 3.60425L3.38563 2.81939C3.34514 2.75868 3.28769 2.71121 3.22044 2.68289C3.15318 2.65457 3.07908 2.64664 3.00736 2.66009L1.93475 2.86238C1.87662 2.87348 1.82198 2.89831 1.77538 2.9348C1.72877 2.97128 1.69156 3.01837 1.66682 3.07214C1.64209 3.12591 1.63056 3.18481 1.63318 3.24394C1.6358 3.30306 1.6525 3.36071 1.6819 3.41208L2.74389 5.27207C2.77646 5.32818 2.79388 5.39178 2.79446 5.45665V8.09847" stroke="white" stroke-width="0.8" stroke-miterlimit="10"/>
<path d="M11.1328 7.90459L13.3741 7.1875L13.7969 8.5079L11.6992 9.18555" stroke="white" stroke-width="0.8" stroke-miterlimit="10"/>
<path d="M12.4062 9.659L13.3904 9.32422L13.8131 10.5683L12.8498 10.896" stroke="white" stroke-width="0.8" stroke-miterlimit="10"/>
<path d="M12.8801 10.9472C12.7664 10.6428 12.6312 10.3469 12.4755 10.0617L11.3852 8.25838C10.7682 7.32636 10.2024 6.56679 10.1685 6.52178C10.2337 6.31343 10.7 5.10024 12.787 4.83929C13.0566 4.80541 13.1299 3.29689 13.1299 3.29689C8.66096 2.29963 7.53171 5.79862 7.38 6.36248L5.23681 6.24415C4.93361 6.22293 4.63177 6.30124 4.37711 6.46717C3.27164 7.18628 1.36765 9.3947 1.19925 12.6909C0.996966 16.6041 8.6468 22.0783 11.453 20.8328C13.5087 19.9154 14.908 16.6875 12.8801 10.9472Z" stroke="white" stroke-width="0.8" stroke-miterlimit="10"/>
<path d="M5.30469 6.26909C5.30469 6.26909 6.04707 3.47 7.53233 2.61282C7.78518 2.46819 7.70376 0.873697 7.70376 0.873697C7.70349 0.850483 7.71235 0.82809 7.72843 0.811346C7.74451 0.794603 7.76653 0.784849 7.78973 0.784187H8.60645C8.62584 0.783939 8.64477 0.790029 8.66038 0.801531C8.67599 0.813032 8.68742 0.829316 8.69292 0.847906L8.94578 1.70002C8.95095 1.71728 8.96128 1.73255 8.97536 1.74378C8.98945 1.75502 9.00663 1.76169 9.02461 1.7629C9.04258 1.76411 9.0605 1.7598 9.07597 1.75055C9.09143 1.7413 9.1037 1.72756 9.11114 1.71115L9.44693 0.838298C9.45439 0.82286 9.46612 0.809887 9.48073 0.800922C9.49535 0.791957 9.51222 0.787377 9.52936 0.787727L10.3385 0.80037C10.3514 0.800607 10.364 0.803636 10.3756 0.809247C10.3872 0.814859 10.3975 0.822919 10.4056 0.832871C10.4138 0.842824 10.4197 0.854432 10.423 0.866893C10.4262 0.879355 10.4267 0.892374 10.4245 0.905051L9.98905 1.86994C9.98564 1.88924 9.98873 1.90912 9.99784 1.92647C10.0069 1.94382 10.0215 1.95766 10.0394 1.96581C10.0572 1.97397 10.0772 1.97598 10.0963 1.97154C10.1154 1.96709 10.1324 1.95644 10.1448 1.94124L11.2371 1.03097C11.2447 1.02144 11.2542 1.01359 11.265 1.0079C11.2758 1.00221 11.2876 0.998806 11.2998 0.997904C11.3119 0.997002 11.3241 0.99862 11.3356 1.00266C11.3471 1.00669 11.3577 1.01306 11.3666 1.02136L11.9092 1.52707C12.0104 1.68232 11.6124 2.21382 11.4945 2.31092C11.4919 2.31329 11.4897 2.31621 11.4882 2.31948C11.4867 2.32275 11.486 2.32629 11.486 2.32988C11.486 2.33347 11.4867 2.33701 11.4882 2.34028C11.4897 2.34355 11.4919 2.34647 11.4945 2.34884C11.6098 2.45707 12.0943 2.92737 12.0417 3.12612" stroke="white" stroke-width="0.8" stroke-miterlimit="10"/>
<path d="M11.5264 8.58594C11.4905 9.33438 11.359 10.1678 10.7628 10.6229C10.4902 10.8308 10.1529 10.9304 9.84645 11.0851C8.86487 11.5812 8.23678 12.7034 8.32933 13.7988" stroke="white" stroke-width="0.8" stroke-miterlimit="10" stroke-linecap="round"/>
<path d="M10.3535 10.9199C10.306 11.5076 10.2666 12.1336 10.5558 12.6484C10.6448 12.8047 10.7617 12.9443 10.8532 13.0995C11.1237 13.5582 11.1505 14.1155 11.1708 14.648" stroke="white" stroke-width="0.8" stroke-miterlimit="10" stroke-linecap="round"/>
<path d="M9.64869 11.1966C9.27548 11.2593 8.87294 11.1066 8.52198 11.2507C8.4019 11.3081 8.28831 11.3781 8.18315 11.4596C7.73736 11.766 7.21891 11.95 6.67969 11.9931" stroke="white" stroke-width="0.8" stroke-miterlimit="10" stroke-linecap="round"/>
</svg>
