<svg width="30" height="30" viewBox="0 0 30 30" fill="none" xmlns="http://www.w3.org/2000/svg">
<path d="M15 25C15.5833 25 16.0764 24.7986 16.4792 24.3958C16.8819 23.9931 17.0833 23.5 17.0833 22.9167C17.0833 22.3333 16.8819 21.8403 16.4792 21.4375C16.0764 21.0347 15.5833 20.8333 15 20.8333C14.4167 20.8333 13.9236 21.0347 13.5208 21.4375C13.1181 21.8403 12.9167 22.3333 12.9167 22.9167C12.9167 23.5 13.1181 23.9931 13.5208 24.3958C13.9236 24.7986 14.4167 25 15 25ZM13.5 18.5833H16.5833C16.5833 17.5833 16.6944 16.8472 16.9167 16.375C17.1389 15.9028 17.6111 15.3056 18.3333 14.5833C19.3056 13.6111 19.9931 12.7986 20.3958 12.1458C20.7986 11.4931 21 10.75 21 9.91667C21 8.44444 20.5 7.25694 19.5 6.35417C18.5 5.45139 17.1528 5 15.4583 5C13.9306 5 12.6319 5.375 11.5625 6.125C10.4931 6.875 9.75 7.91667 9.33333 9.25L12.0833 10.3333C12.2778 9.58333 12.6667 8.97917 13.25 8.52083C13.8333 8.0625 14.5139 7.83333 15.2917 7.83333C16.0417 7.83333 16.6667 8.03472 17.1667 8.4375C17.6667 8.84028 17.9167 9.375 17.9167 10.0417C17.9167 10.5139 17.7639 11.0139 17.4583 11.5417C17.1528 12.0694 16.6389 12.6528 15.9167 13.2917C15 14.0972 14.3681 14.8681 14.0208 15.6042C13.6736 16.3403 13.5 17.3333 13.5 18.5833ZM3.33333 30C2.41667 30 1.63194 29.6736 0.979167 29.0208C0.326389 28.3681 0 27.5833 0 26.6667V3.33333C0 2.41667 0.326389 1.63194 0.979167 0.979167C1.63194 0.326389 2.41667 0 3.33333 0H26.6667C27.5833 0 28.3681 0.326389 29.0208 0.979167C29.6736 1.63194 30 2.41667 30 3.33333V26.6667C30 27.5833 29.6736 28.3681 29.0208 29.0208C28.3681 29.6736 27.5833 30 26.6667 30H3.33333Z" fill="#8720CC"/>
</svg>
