<svg width="22" height="22" viewBox="0 0 22 22" fill="none" xmlns="http://www.w3.org/2000/svg">
<path d="M21.4 10.7C21.4 16.5565 16.5493 21.4 10.6954 21.4C4.84648 21.4 0 16.5565 0 10.7C0 4.84344 4.83717 0 10.686 0C16.5401 0 21.4 4.84344 21.4 10.7ZM9.36958 15.0511C9.36958 15.6311 9.8809 16.1045 10.4691 16.1045C11.0521 16.1045 11.5592 15.6404 11.5592 15.0511C11.5592 14.4533 11.0614 13.9884 10.4691 13.9884C9.8716 13.9884 9.36958 14.4627 9.36958 15.0511ZM7.50627 7.17723C7.4555 7.3454 7.42756 7.50521 7.42756 7.69107C7.42756 8.12766 7.76849 8.36621 8.09403 8.36621C8.43307 8.36621 8.65707 8.19708 8.82058 7.96043L8.97896 7.71769C9.30087 7.03216 9.92088 6.5764 10.7419 6.5764C11.794 6.5764 12.4728 7.16184 12.4728 8.01743C12.4728 8.75618 12.0286 9.13064 11.0592 9.81766C10.2571 10.378 9.71875 10.9462 9.71875 11.9804C9.71875 12.0358 9.71875 12.1005 9.71875 12.1652C9.71875 12.6722 9.99865 12.9335 10.4919 12.9335C10.9758 12.9335 11.2702 12.6256 11.2702 12.2398C11.2702 12.1751 11.2702 12.1187 11.2702 12.0582C11.2702 11.4346 11.6096 11.048 12.3899 10.5282C13.4547 9.82346 14.1495 9.18345 14.1495 7.93962C14.1495 6.2164 12.6231 5.25639 10.8062 5.25639C8.96655 5.25639 7.77687 6.14926 7.50627 7.17723Z" fill="#FEFEFE"/>
</svg>
