<svg width="34" height="34" viewBox="0 0 34 34" fill="none" xmlns="http://www.w3.org/2000/svg">
<path d="M15.3359 25.333H18.6693V15.333H15.3359V25.333ZM17.0026 11.9997C17.4748 11.9997 17.8707 11.84 18.1901 11.5205C18.5096 11.2011 18.6693 10.8052 18.6693 10.333C18.6693 9.86079 18.5096 9.46495 18.1901 9.14551C17.8707 8.82606 17.4748 8.66634 17.0026 8.66634C16.5304 8.66634 16.1346 8.82606 15.8151 9.14551C15.4957 9.46495 15.3359 9.86079 15.3359 10.333C15.3359 10.8052 15.4957 11.2011 15.8151 11.5205C16.1346 11.84 16.5304 11.9997 17.0026 11.9997ZM17.0026 33.6663C14.697 33.6663 12.5304 33.2288 10.5026 32.3538C8.47483 31.4788 6.71094 30.2913 5.21094 28.7913C3.71094 27.2913 2.52344 25.5275 1.64844 23.4997C0.773438 21.4719 0.335938 19.3052 0.335938 16.9997C0.335938 14.6941 0.773438 12.5275 1.64844 10.4997C2.52344 8.4719 3.71094 6.70801 5.21094 5.20801C6.71094 3.70801 8.47483 2.52051 10.5026 1.64551C12.5304 0.770508 14.697 0.333008 17.0026 0.333008C19.3082 0.333008 21.4748 0.770508 23.5026 1.64551C25.5304 2.52051 27.2943 3.70801 28.7943 5.20801C30.2943 6.70801 31.4818 8.4719 32.3568 10.4997C33.2318 12.5275 33.6693 14.6941 33.6693 16.9997C33.6693 19.3052 33.2318 21.4719 32.3568 23.4997C31.4818 25.5275 30.2943 27.2913 28.7943 28.7913C27.2943 30.2913 25.5304 31.4788 23.5026 32.3538C21.4748 33.2288 19.3082 33.6663 17.0026 33.6663Z" fill="#8720CC"/>
</svg>
