<svg width="37" height="49" viewBox="0 0 37 49" fill="none" xmlns="http://www.w3.org/2000/svg">
<path d="M4.71029 48.2666C3.45363 48.2666 2.37786 47.8192 1.48296 46.9243C0.588071 46.0294 0.140625 44.9536 0.140625 43.6969V20.8486C0.140625 19.592 0.588071 18.5162 1.48296 17.6213C2.37786 16.7264 3.45363 16.279 4.71029 16.279H6.99512V11.7093C6.99512 8.54863 8.10897 5.85443 10.3367 3.62672C12.5644 1.39901 15.2586 0.285156 18.4193 0.285156C21.58 0.285156 24.2742 1.39901 26.5019 3.62672C28.7296 5.85443 29.8434 8.54863 29.8434 11.7093V16.279H32.1283C33.3849 16.279 34.4607 16.7264 35.3556 17.6213C36.2505 18.5162 36.6979 19.592 36.6979 20.8486V43.6969C36.6979 44.9536 36.2505 46.0294 35.3556 46.9243C34.4607 47.8192 33.3849 48.2666 32.1283 48.2666H4.71029ZM18.4193 36.8424C19.6759 36.8424 20.7517 36.395 21.6466 35.5001C22.5415 34.6052 22.9889 33.5294 22.9889 32.2728C22.9889 31.0161 22.5415 29.9404 21.6466 29.0455C20.7517 28.1506 19.6759 27.7031 18.4193 27.7031C17.1626 27.7031 16.0868 28.1506 15.1919 29.0455C14.2971 29.9404 13.8496 31.0161 13.8496 32.2728C13.8496 33.5294 14.2971 34.6052 15.1919 35.5001C16.0868 36.395 17.1626 36.8424 18.4193 36.8424ZM11.5648 16.279H25.2738V11.7093C25.2738 9.80528 24.6074 8.18686 23.2745 6.85404C21.9417 5.52123 20.3233 4.85482 18.4193 4.85482C16.5152 4.85482 14.8968 5.52123 13.564 6.85404C12.2312 8.18686 11.5648 9.80528 11.5648 11.7093V16.279Z" fill="#8720CC"/>
</svg>
