<svg width="16" height="17" viewBox="0 0 16 17" fill="none" xmlns="http://www.w3.org/2000/svg">
<path d="M5.66927 13.1654H5.33594C2.66927 13.1654 1.33594 12.4987 1.33594 9.16536V5.83203C1.33594 3.16536 2.66927 1.83203 5.33594 1.83203H10.6693C13.3359 1.83203 14.6693 3.16536 14.6693 5.83203V9.16536C14.6693 11.832 13.3359 13.1654 10.6693 13.1654H10.3359C10.1293 13.1654 9.92927 13.2654 9.8026 13.432L8.8026 14.7654C8.3626 15.352 7.6426 15.352 7.2026 14.7654L6.2026 13.432C6.09594 13.2854 5.84927 13.1654 5.66927 13.1654Z" stroke="white" stroke-width="1.5" stroke-miterlimit="10" stroke-linecap="round" stroke-linejoin="round"/>
<path d="M10.6656 7.83333H10.6716" stroke="white" stroke-width="2" stroke-linecap="round" stroke-linejoin="round"/>
<path d="M7.99764 7.83333H8.00363" stroke="white" stroke-width="2" stroke-linecap="round" stroke-linejoin="round"/>
<path d="M5.32967 7.83333H5.33566" stroke="white" stroke-width="2" stroke-linecap="round" stroke-linejoin="round"/>
</svg>
