<svg width="34" height="47" viewBox="0 0 34 47" fill="none" xmlns="http://www.w3.org/2000/svg">
<path d="M17.0026 29.834C14.9887 29.834 13.2769 29.1291 11.8672 27.7194C10.4575 26.3097 9.7526 24.5979 9.7526 22.584V8.08398C9.7526 6.0701 10.4575 4.35829 11.8672 2.94857C13.2769 1.53885 14.9887 0.833984 17.0026 0.833984C19.0165 0.833984 20.7283 1.53885 22.138 2.94857C23.5477 4.35829 24.2526 6.0701 24.2526 8.08398V22.584C24.2526 24.5979 23.5477 26.3097 22.138 27.7194C20.7283 29.1291 19.0165 29.834 17.0026 29.834ZM14.5859 46.7507V39.3194C10.397 38.7555 6.93316 36.8826 4.19427 33.7007C1.45538 30.5187 0.0859375 26.8132 0.0859375 22.584H4.91927C4.91927 25.927 6.0974 28.7767 8.45365 31.1329C10.8099 33.4892 13.6595 34.6673 17.0026 34.6673C20.3457 34.6673 23.1953 33.4892 25.5516 31.1329C27.9078 28.7767 29.0859 25.927 29.0859 22.584H33.9193C33.9193 26.8132 32.5498 30.5187 29.8109 33.7007C27.072 36.8826 23.6082 38.7555 19.4193 39.3194V46.7507H14.5859Z" fill="white"/>
</svg>
