<svg width="20" height="26" viewBox="0 0 20 26" fill="none" xmlns="http://www.w3.org/2000/svg">
<path d="M0 21.749V19.249H2.5V10.499C2.5 8.76986 3.02083 7.2334 4.0625 5.88965C5.10417 4.5459 6.45833 3.66569 8.125 3.24902V2.37402C8.125 1.85319 8.30729 1.41048 8.67188 1.0459C9.03646 0.681315 9.47917 0.499023 10 0.499023C10.5208 0.499023 10.9635 0.681315 11.3281 1.0459C11.6927 1.41048 11.875 1.85319 11.875 2.37402V3.24902C13.5417 3.66569 14.8958 4.5459 15.9375 5.88965C16.9792 7.2334 17.5 8.76986 17.5 10.499V19.249H20V21.749H0ZM10 25.499C9.3125 25.499 8.72396 25.2542 8.23438 24.7646C7.74479 24.2751 7.5 23.6865 7.5 22.999H12.5C12.5 23.6865 12.2552 24.2751 11.7656 24.7646C11.276 25.2542 10.6875 25.499 10 25.499Z" fill="white"/>
</svg>
