<svg width="44" height="44" viewBox="0 0 44 44" fill="none" xmlns="http://www.w3.org/2000/svg">
<g filter="url(#filter0_b_2_3245)">
<circle cx="22" cy="22" r="22" fill="#5F5771" fill-opacity="0.15"/>
</g>
<g filter="url(#filter1_b_2_3245)">
<circle cx="22" cy="22" r="22" fill="#5F5771" fill-opacity="0.15"/>
</g>
<circle cx="22" cy="22" r="21.75" stroke="#8720CC" stroke-opacity="0.2" stroke-width="0.5"/>
<path fill-rule="evenodd" clip-rule="evenodd" d="M17.0502 14.0503C18.363 12.7375 20.1435 12 22 12C23.8565 12 25.637 12.7375 26.9497 14.0503C28.2625 15.363 29 17.1435 29 19C29 22.3527 29.7171 24.4346 30.3779 25.6461C30.7097 26.2544 31.0328 26.6535 31.2572 26.8904C31.3697 27.0091 31.458 27.0878 31.5113 27.1322C31.5379 27.1544 31.5557 27.168 31.5634 27.1737C31.5646 27.1746 31.5656 27.1753 31.5663 27.1758C31.9248 27.4221 32.0834 27.8725 31.9571 28.2898C31.8294 28.7115 31.4407 29 31 29H13C12.5593 29 12.1706 28.7115 12.0429 28.2898C11.9166 27.8725 12.0752 27.4221 12.4337 27.1758C12.4344 27.1753 12.4353 27.1746 12.4365 27.1737C12.4442 27.168 12.4621 27.1544 12.4887 27.1322C12.5419 27.0878 12.6303 27.0091 12.7428 26.8904C12.9672 26.6535 13.2903 26.2544 13.6221 25.6461C14.2829 24.4346 15 22.3527 15 19C15 17.1435 15.7375 15.363 17.0502 14.0503ZM12.4438 27.169C12.4439 27.1689 12.4439 27.1688 12.444 27.1688C12.444 27.1688 12.444 27.1688 12.444 27.1688L12.4438 27.169ZM15.1493 27H28.8507C28.7746 26.8753 28.6982 26.7434 28.6221 26.6039C27.7829 25.0654 27 22.6473 27 19C27 17.6739 26.4732 16.4021 25.5355 15.4645C24.5978 14.5268 23.3261 14 22 14C20.6739 14 19.4021 14.5268 18.4645 15.4645C17.5268 16.4021 17 17.6739 17 19C17 22.6473 16.2171 25.0654 15.3779 26.6039C15.3018 26.7434 15.2254 26.8753 15.1493 27Z" fill="white"/>
<path fill-rule="evenodd" clip-rule="evenodd" d="M19.7682 31.1352C20.246 30.858 20.8579 31.0207 21.135 31.4984C21.2229 31.6499 21.3491 31.7757 21.5009 31.8632C21.6527 31.9506 21.8248 31.9966 22 31.9966C22.1752 31.9966 22.3473 31.9506 22.4991 31.8632C22.6509 31.7757 22.7771 31.6499 22.865 31.4984C23.1421 31.0207 23.754 30.858 24.2318 31.1352C24.7095 31.4123 24.8721 32.0242 24.595 32.5019C24.3313 32.9566 23.9528 33.3339 23.4973 33.5962C23.0419 33.8586 22.5256 33.9966 22 33.9966C21.4744 33.9966 20.9581 33.8586 20.5027 33.5962C20.0472 33.3339 19.6687 32.9566 19.405 32.5019C19.1279 32.0242 19.2905 31.4123 19.7682 31.1352Z" fill="white"/>
<circle cx="27.5" cy="11.5" r="6.5" fill="#8720CC"/>
<path d="M26.5943 11.4165V10.8269H27.2654C27.9093 10.8269 28.3593 10.4118 28.3593 9.84546C28.3593 9.29074 27.983 8.91447 27.2732 8.91447C26.6292 8.91447 26.2025 9.28299 26.1405 9.86873H25.4694C25.547 8.91835 26.253 8.30933 27.3042 8.30933C28.305 8.30933 29.0614 8.91059 29.0614 9.75236C29.0614 10.4545 28.6115 10.9588 27.9132 11.0829V11.0984C28.7589 11.1488 29.3019 11.6725 29.3019 12.46C29.3019 13.422 28.4253 14.0931 27.3275 14.0931C26.156 14.0931 25.4073 13.4453 25.3569 12.5182H26.028C26.09 13.0923 26.5672 13.488 27.3197 13.488C28.0606 13.488 28.5921 13.069 28.5921 12.4833C28.5921 11.8238 28.0955 11.4165 27.2964 11.4165H26.5943Z" fill="white"/>
<defs>
<filter id="filter0_b_2_3245" x="-8" y="-8" width="60" height="60" filterUnits="userSpaceOnUse" color-interpolation-filters="sRGB">
<feFlood flood-opacity="0" result="BackgroundImageFix"/>
<feGaussianBlur in="BackgroundImageFix" stdDeviation="4"/>
<feComposite in2="SourceAlpha" operator="in" result="effect1_backgroundBlur_2_3245"/>
<feBlend mode="normal" in="SourceGraphic" in2="effect1_backgroundBlur_2_3245" result="shape"/>
</filter>
<filter id="filter1_b_2_3245" x="-8" y="-8" width="60" height="60" filterUnits="userSpaceOnUse" color-interpolation-filters="sRGB">
<feFlood flood-opacity="0" result="BackgroundImageFix"/>
<feGaussianBlur in="BackgroundImageFix" stdDeviation="4"/>
<feComposite in2="SourceAlpha" operator="in" result="effect1_backgroundBlur_2_3245"/>
<feBlend mode="normal" in="SourceGraphic" in2="effect1_backgroundBlur_2_3245" result="shape"/>
</filter>
</defs>
</svg>
