<svg width="28" height="28" viewBox="0 0 28 28" fill="none" xmlns="http://www.w3.org/2000/svg">
<path d="M13.9974 14.0003C12.1641 14.0003 10.5946 13.3475 9.28906 12.042C7.98351 10.7364 7.33073 9.16699 7.33073 7.33366C7.33073 5.50033 7.98351 3.93088 9.28906 2.62533C10.5946 1.31977 12.1641 0.666992 13.9974 0.666992C15.8307 0.666992 17.4002 1.31977 18.7057 2.62533C20.0113 3.93088 20.6641 5.50033 20.6641 7.33366C20.6641 9.16699 20.0113 10.7364 18.7057 12.042C17.4002 13.3475 15.8307 14.0003 13.9974 14.0003ZM0.664062 27.3337V22.667C0.664062 21.7225 0.907118 20.8545 1.39323 20.0628C1.87934 19.2712 2.52517 18.667 3.33073 18.2503C5.05295 17.3892 6.80295 16.7434 8.58073 16.3128C10.3585 15.8823 12.1641 15.667 13.9974 15.667C15.8307 15.667 17.6363 15.8823 19.4141 16.3128C21.1918 16.7434 22.9418 17.3892 24.6641 18.2503C25.4696 18.667 26.1154 19.2712 26.6016 20.0628C27.0877 20.8545 27.3307 21.7225 27.3307 22.667V27.3337H0.664062Z" fill="#8720CC"/>
</svg>
