<svg width="32" height="32" viewBox="0 0 32 32" fill="none" xmlns="http://www.w3.org/2000/svg">
<mask id="mask0_2948_4633" style="mask-type:alpha" maskUnits="userSpaceOnUse" x="0" y="0" width="32" height="32">
<rect width="32" height="32" fill="#D9D9D9"/>
</mask>
<g mask="url(#mask0_2948_4633)">
<path d="M11.9993 18.667H25.3327L20.7327 12.667L17.666 16.667L15.5993 14.0003L11.9993 18.667ZM10.666 24.0003C9.93268 24.0003 9.3049 23.7392 8.78268 23.217C8.26046 22.6948 7.99935 22.067 7.99935 21.3337V5.33366C7.99935 4.60033 8.26046 3.97255 8.78268 3.45033C9.3049 2.9281 9.93268 2.66699 10.666 2.66699H26.666C27.3993 2.66699 28.0271 2.9281 28.5494 3.45033C29.0716 3.97255 29.3327 4.60033 29.3327 5.33366V21.3337C29.3327 22.067 29.0716 22.6948 28.5494 23.217C28.0271 23.7392 27.3993 24.0003 26.666 24.0003H10.666ZM10.666 21.3337H26.666V5.33366H10.666V21.3337ZM5.33268 29.3337C4.59935 29.3337 3.97157 29.0725 3.44935 28.5503C2.92713 28.0281 2.66602 27.4003 2.66602 26.667V8.00033H5.33268V26.667H23.9993V29.3337H5.33268Z" fill="white"/>
</g>
</svg>
