<svg width="33" height="33" viewBox="0 0 33 33" fill="none" xmlns="http://www.w3.org/2000/svg">
<mask id="mask0_2948_4645" style="mask-type:alpha" maskUnits="userSpaceOnUse" x="0" y="0" width="33" height="33">
<rect x="0.133789" y="0.119141" width="32" height="32" fill="#D9D9D9"/>
</mask>
<g mask="url(#mask0_2948_4645)">
<path d="M16.1341 23.4525C17.8008 23.4525 19.2174 22.8691 20.3841 21.7025C21.5508 20.5358 22.1341 19.1191 22.1341 17.4525C22.1341 15.7858 21.5508 14.3691 20.3841 13.2025C19.2174 12.0358 17.8008 11.4525 16.1341 11.4525C14.4674 11.4525 13.0508 12.0358 11.8841 13.2025C10.7174 14.3691 10.1341 15.7858 10.1341 17.4525C10.1341 19.1191 10.7174 20.5358 11.8841 21.7025C13.0508 22.8691 14.4674 23.4525 16.1341 23.4525ZM16.1341 20.7858C15.2008 20.7858 14.4119 20.4636 13.7674 19.8191C13.123 19.1747 12.8008 18.3858 12.8008 17.4525C12.8008 16.5191 13.123 15.7303 13.7674 15.0858C14.4119 14.4414 15.2008 14.1191 16.1341 14.1191C17.0674 14.1191 17.8563 14.4414 18.5008 15.0858C19.1452 15.7303 19.4674 16.5191 19.4674 17.4525C19.4674 18.3858 19.1452 19.1747 18.5008 19.8191C17.8563 20.4636 17.0674 20.7858 16.1341 20.7858ZM5.46745 28.1191C4.73411 28.1191 4.10634 27.858 3.58411 27.3358C3.06189 26.8136 2.80078 26.1858 2.80078 25.4525V9.45247C2.80078 8.71914 3.06189 8.09136 3.58411 7.56914C4.10634 7.04692 4.73411 6.78581 5.46745 6.78581H9.66745L12.1341 4.11914H20.1341L22.6008 6.78581H26.8008C27.5341 6.78581 28.1619 7.04692 28.6841 7.56914C29.2063 8.09136 29.4674 8.71914 29.4674 9.45247V25.4525C29.4674 26.1858 29.2063 26.8136 28.6841 27.3358C28.1619 27.858 27.5341 28.1191 26.8008 28.1191H5.46745ZM5.46745 25.4525H26.8008V9.45247H21.4008L18.9674 6.78581H13.3008L10.8674 9.45247H5.46745V25.4525Z" fill="white"/>
</g>
</svg>
