<svg width="44" height="44" viewBox="0 0 44 44" fill="none" xmlns="http://www.w3.org/2000/svg">
<circle cx="22" cy="22" r="21" stroke="#8720CC" stroke-width="2"/>
<path d="M21.9913 42C32.9333 42 42 32.9467 42 22C42 11.0532 32.916 2 21.9739 2C11.0414 2 2 11.0532 2 22C2 32.9467 11.0588 42 21.9913 42ZM21.9913 39.0544C12.5562 39.0544 4.97125 31.4567 4.97125 22C4.97125 12.5433 12.5388 4.94552 21.9739 4.94552C31.4264 4.94552 39.0383 12.5433 39.0383 22C39.0383 31.4567 31.444 39.0544 21.9913 39.0544ZM35.4849 34.9727L35.4327 34.7752C34.3834 31.9071 29.1948 28.6745 21.9913 28.6745C14.8036 28.6745 9.6324 31.8994 8.56737 34.7516L8.51514 34.9727C12.0615 38.5057 17.9086 40.6101 21.9992 40.6101C26.1228 40.6101 31.8838 38.537 35.4849 34.9727ZM21.9913 25.3104C25.7944 25.3452 28.7586 22.0959 28.7586 17.8524C28.7586 13.8613 25.7709 10.5459 21.9913 10.5459C18.2292 10.5459 15.2163 13.8613 15.2415 17.8524C15.2589 22.0959 18.1883 25.2755 21.9913 25.3104Z" fill="white"/>
</svg>
