<svg width="28" height="34" viewBox="0 0 28 34" fill="none" xmlns="http://www.w3.org/2000/svg">
<path d="M7.33073 16.9997H20.6641V13.6663H7.33073V16.9997ZM7.33073 10.333H20.6641V6.99967H7.33073V10.333ZM27.2474 31.1247L20.4974 22.333C20.0252 21.6941 19.4418 21.2011 18.7474 20.8538C18.053 20.5066 17.303 20.333 16.4974 20.333H0.664062V3.66634C0.664062 2.74967 0.990451 1.96495 1.64323 1.31217C2.29601 0.659397 3.08073 0.333008 3.9974 0.333008H23.9974C24.9141 0.333008 25.6988 0.659397 26.3516 1.31217C27.0043 1.96495 27.3307 2.74967 27.3307 3.66634V30.333C27.3307 30.4719 27.3238 30.6038 27.3099 30.7288C27.296 30.8538 27.2752 30.9858 27.2474 31.1247ZM3.9974 33.6663C3.08073 33.6663 2.29601 33.34 1.64323 32.6872C0.990451 32.0344 0.664062 31.2497 0.664062 30.333V23.6663H16.4974C16.7752 23.6663 17.0321 23.7288 17.2682 23.8538C17.5043 23.9788 17.7057 24.1525 17.8724 24.3747L24.8724 33.5413C24.7335 33.5969 24.5877 33.6316 24.4349 33.6455C24.2821 33.6594 24.1363 33.6663 23.9974 33.6663H3.9974Z" fill="#8720CC"/>
</svg>
