<svg width="28" height="34" viewBox="0 0 28 34" fill="none" xmlns="http://www.w3.org/2000/svg">
<path d="M13.9974 23.6666C14.4696 23.6666 14.8655 23.5069 15.1849 23.1874C15.5043 22.868 15.6641 22.4721 15.6641 21.9999C15.6641 21.5277 15.5043 21.1319 15.1849 20.8124C14.8655 20.493 14.4696 20.3333 13.9974 20.3333C13.5252 20.3333 13.1293 20.493 12.8099 20.8124C12.4905 21.1319 12.3307 21.5277 12.3307 21.9999C12.3307 22.4721 12.4905 22.868 12.8099 23.1874C13.1293 23.5069 13.5252 23.6666 13.9974 23.6666ZM12.3307 16.9999H15.6641V8.66658H12.3307V16.9999ZM13.9974 33.6666C10.1363 32.6944 6.94878 30.4791 4.4349 27.0208C1.92101 23.5624 0.664062 19.7221 0.664062 15.4999V5.33325L13.9974 0.333252L27.3307 5.33325V15.4999C27.3307 19.7221 26.0738 23.5624 23.5599 27.0208C21.046 30.4791 17.8585 32.6944 13.9974 33.6666Z" fill="#8720CC"/>
</svg>
