<svg width="22" height="22" viewBox="0 0 22 22" fill="none" xmlns="http://www.w3.org/2000/svg">
<path d="M21.498 11.2777C21.498 17.1465 16.6251 22.0002 10.7444 22.0002C4.86868 22.0002 0 17.1465 0 11.2777C0 5.4088 4.85933 0.555176 10.735 0.555176C16.6158 0.555176 21.498 5.4088 21.498 11.2777ZM14.8905 5.56854L4.19727 9.66479C3.71873 9.84172 3.36456 10.1256 3.36456 10.5458C3.36456 11.0542 3.73229 11.2363 4.30156 11.4038L7.80205 12.4637C8.16136 12.5739 8.37417 12.5665 8.60856 12.3419L15.3049 6.0438C15.3873 5.97517 15.4697 5.98966 15.5333 6.03542C15.602 6.0905 15.5894 6.18106 15.5206 6.25903L9.23359 12.9605C9.01793 13.1944 8.99175 13.3933 9.09281 13.7747L10.131 17.1841C10.3176 17.7708 10.4907 18.1751 11.0095 18.1751C11.4212 18.1751 11.7056 17.8404 11.9204 17.2974L15.9969 6.66336C16.0844 6.41078 16.1396 6.20813 16.1396 6.00644C16.1396 5.64555 15.9197 5.42613 15.5487 5.42613C15.3602 5.42613 15.153 5.48123 14.8905 5.56854Z" fill="white" fill-opacity="0.85"/>
</svg>
