<svg width="22" height="22" viewBox="0 0 22 22" fill="none" xmlns="http://www.w3.org/2000/svg">
<path d="M9.66388 21.2424H11.5735C12.1149 21.2424 12.5017 20.9297 12.627 20.3853L13.145 18.174C13.5184 18.0428 13.8819 17.9067 14.2144 17.7485L16.151 18.9489C16.6004 19.2337 17.1044 19.1906 17.4763 18.8187L18.8145 17.4803C19.1906 17.1044 19.2426 16.5864 18.9399 16.1201L17.7485 14.2004C17.9067 13.8639 18.0518 13.5045 18.165 13.1589L20.3982 12.6319C20.9337 12.5156 21.2374 12.1288 21.2374 11.5785V9.69983C21.2374 9.16751 20.9337 8.7807 20.3982 8.66436L18.183 8.12838C18.0518 7.73793 17.8976 7.38747 17.7665 7.07792L18.958 5.13126C19.2517 4.66902 19.2176 4.17395 18.8325 3.78898L17.4763 2.45072C17.0954 2.09675 16.6363 2.03565 16.1781 2.30246L14.2144 3.52085C13.8908 3.3627 13.5273 3.22655 13.145 3.09536L12.627 0.85712C12.5017 0.312675 12.1149 0 11.5735 0H9.66388C9.12256 0 8.73576 0.312675 8.61941 0.85712L8.09243 3.07738C7.71995 3.20857 7.34657 3.34471 7.01904 3.51186L5.06429 2.30246C4.59711 2.03565 4.138 2.08776 3.75705 2.45072L2.40082 3.78898C2.01585 4.17395 1.98171 4.66902 2.27549 5.13126L3.46692 7.07792C3.33572 7.38747 3.1816 7.73793 3.05939 8.12838L0.848131 8.66436C0.303686 8.7807 0 9.16751 0 9.69983V11.5785C0 12.1288 0.303686 12.5156 0.848131 12.6319L3.07738 13.1589C3.1816 13.5045 3.32673 13.8639 3.4849 14.2004L2.29347 16.1201C1.9907 16.5864 2.04281 17.1044 2.41881 17.4803L3.75705 18.8187C4.12901 19.1906 4.63306 19.2337 5.09126 18.9489L7.02803 17.7485C7.35555 17.9067 7.71995 18.0428 8.09243 18.174L8.61941 20.3853C8.73576 20.9297 9.12256 21.2424 9.66388 21.2424ZM10.6252 14.2484C8.62475 14.2484 6.99402 12.5996 6.99402 10.6082C6.99402 8.63374 8.62879 6.99402 10.6252 6.99402C12.6167 6.99402 14.2474 8.63374 14.2474 10.6082C14.2474 12.5996 12.6167 14.2484 10.6252 14.2484Z" fill="white"/>
</svg>
