<svg width="46" height="38" viewBox="0 0 46 38" fill="none" xmlns="http://www.w3.org/2000/svg">
<path d="M21.8759 30.3193C28.3039 23.4416 34.5093 18.776 42.3043 12.1688C44.6373 10.1911 44.9976 6.72459 43.1674 4.26859C41.2223 1.65835 37.526 1.13662 35.0243 3.21174C27.8842 9.13404 22.3292 14.8364 17.0599 20.9311C16.7834 21.2509 16.6451 21.4109 16.5016 21.501C16.1377 21.7292 15.683 21.7316 15.3168 21.5071C15.1723 21.4186 15.0338 21.2618 14.7568 20.9482L11.9489 17.7691C9.38694 14.8682 4.7917 15.1895 2.65263 18.4187C1.15571 20.6786 1.37753 23.6733 3.19082 25.6848L7.59388 30.5691C10.8872 34.2222 12.5338 36.049 14.5107 36.0667C16.4875 36.0846 18.2836 34.1629 21.8759 30.3193Z" fill="#8720CC" stroke="#8720CC" stroke-width="3.2"/>
</svg>
