<svg width="44" height="44" viewBox="0 0 44 44" fill="none" xmlns="http://www.w3.org/2000/svg">
<rect width="44" height="44" rx="10" fill="#1B4F88"/>
<path d="M30.1893 22.999C31.8462 25.8688 30.863 29.5383 27.9932 31.1952C25.1234 32.8521 21.4539 31.8688 19.797 28.999M30.1893 22.999C28.5325 20.1293 24.863 19.146 21.9932 20.8029C19.1234 22.4598 18.1402 26.1293 19.797 28.999M30.1893 22.999L19.797 28.999" stroke="#3C99FF" stroke-width="1.5"/>
<path d="M20.0428 15.542L25.1278 12.5374C27 11.4311 29.394 12.0876 30.4749 14.0038C31.3433 15.5431 31.1 17.4272 30 18.6822M20.0428 15.542L14.9579 18.5467C13.0856 19.6529 12.4442 22.1031 13.5251 24.0192C14.175 25.1713 15.2996 25.868 16.5 26M20.0428 15.542L21.5 18" stroke="#3C99FF" stroke-width="1.5" stroke-linecap="round" stroke-linejoin="round"/>
</svg>
