<svg width="20" height="20" viewBox="0 0 20 20" fill="none" xmlns="http://www.w3.org/2000/svg">
<mask id="mask0_1264_6534" style="mask-type:alpha" maskUnits="userSpaceOnUse" x="0" y="0" width="20" height="20">
<rect width="20" height="20" fill="#D9D9D9"/>
</mask>
<g mask="url(#mask0_1264_6534)">
<path d="M12.5026 16.6666C10.6415 16.6666 9.0651 16.0208 7.77344 14.7291C6.48177 13.4375 5.83594 11.8611 5.83594 9.99998C5.83594 8.15276 6.48177 6.57984 7.77344 5.28123C9.0651 3.98262 10.6415 3.33331 12.5026 3.33331C14.3498 3.33331 15.9227 3.98262 17.2214 5.28123C18.52 6.57984 19.1693 8.15276 19.1693 9.99998C19.1693 11.8611 18.52 13.4375 17.2214 14.7291C15.9227 16.0208 14.3498 16.6666 12.5026 16.6666ZM12.5026 15C13.8915 15 15.072 14.5139 16.0443 13.5416C17.0165 12.5694 17.5026 11.3889 17.5026 9.99998C17.5026 8.61109 17.0165 7.43054 16.0443 6.45831C15.072 5.48609 13.8915 4.99998 12.5026 4.99998C11.1137 4.99998 9.93316 5.48609 8.96094 6.45831C7.98872 7.43054 7.5026 8.61109 7.5026 9.99998C7.5026 11.3889 7.98872 12.5694 8.96094 13.5416C9.93316 14.5139 11.1137 15 12.5026 15ZM14.3984 13.1041L15.5859 11.9166L13.3359 9.66665V6.66665H11.6693V10.3541L14.3984 13.1041Z" fill="#8720CC"/>
</g>
</svg>
