<svg width="24" height="24" viewBox="0 0 24 24" fill="none" xmlns="http://www.w3.org/2000/svg">
<path d="M2.77843 10.7534C3.17942 10.5604 3.71775 10.5604 4.79443 10.5604L4.79319 15.3604C3.71733 15.3604 3.17926 15.3604 2.77843 15.1675C2.51574 15.0411 2.2976 14.8593 2.14593 14.6404C1.91443 14.3062 1.91443 13.8576 1.91443 12.9604C1.91443 12.0632 1.91443 11.6146 2.14593 11.2804C2.2976 11.0615 2.51574 10.8797 2.77843 10.7534Z" fill="white"/>
<path d="M4.79443 15.3604H4.79319M4.79319 15.3604C3.71733 15.3604 3.17926 15.3604 2.77843 15.1675C2.51574 15.0411 2.2976 14.8593 2.14593 14.6404C1.91443 14.3062 1.91443 13.8576 1.91443 12.9604C1.91443 12.0632 1.91443 11.6146 2.14593 11.2804C2.2976 11.0615 2.51574 10.8797 2.77843 10.7534C3.17942 10.5604 3.71775 10.5604 4.79443 10.5604L4.79319 15.3604Z" stroke="white" stroke-width="0.49" stroke-linejoin="round"/>
<path d="M21.2216 10.7534C20.8206 10.5604 20.2823 10.5604 19.2056 10.5604L19.2068 15.3604C20.2827 15.3604 20.8207 15.3604 21.2216 15.1675C21.4843 15.0411 21.7024 14.8593 21.8541 14.6404C22.0856 14.3062 22.0856 13.8576 22.0856 12.9604C22.0856 12.0632 22.0856 11.6146 21.8541 11.2804C21.7024 11.0615 21.4843 10.8797 21.2216 10.7534Z" fill="white"/>
<path d="M19.2056 15.3604H19.2068M19.2068 15.3604C20.2827 15.3604 20.8207 15.3604 21.2216 15.1675C21.4843 15.0411 21.7024 14.8593 21.8541 14.6404C22.0856 14.3062 22.0856 13.8576 22.0856 12.9604C22.0856 12.0632 22.0856 11.6146 21.8541 11.2804C21.7024 11.0615 21.4843 10.8797 21.2216 10.7534C20.8206 10.5604 20.2823 10.5604 19.2056 10.5604L19.2068 15.3604Z" stroke="white" stroke-width="0.49" stroke-linejoin="round"/>
<path d="M15.8844 4.53833L14.5849 4.01742C14.6157 5.13674 14.0847 5.89242 13.5872 6.50642L14.8867 7.02733C15.0627 5.79541 14.6619 5.70953 15.8844 4.53833Z" fill="white"/>
<path d="M15.9782 4.35823C16.4804 4.18832 16.7498 3.64344 16.5799 3.14121C16.41 2.63898 15.8651 2.36959 15.3629 2.53951C14.8606 2.70942 14.5912 3.2543 14.7612 3.75653C14.9311 4.25876 15.476 4.52815 15.9782 4.35823Z" fill="white" stroke="white" stroke-width="0.588" stroke-linejoin="round"/>
<path d="M5.75818 18.4447L5.25091 18.9065L5.75818 18.4447ZM12.7424 18.7731C12.3635 18.7731 12.0564 19.0802 12.0564 19.4591C12.0564 19.8379 12.3635 20.1451 12.7424 20.1451V18.7731ZM14.3975 20.1579L13.8787 20.6067C13.8895 20.6192 13.9008 20.6313 13.9125 20.643L14.3975 20.1579ZM17.2993 19.0034L17.4575 19.6709L17.4576 19.6709L17.2993 19.0034ZM18.354 18.4447L17.8467 17.9828L17.8467 17.9829L18.354 18.4447ZM13.4375 6.0319H10.5575V7.4039H13.4375V6.0319ZM10.5575 6.0319C9.22263 6.0319 8.17108 6.02998 7.35193 6.15564C6.49641 6.28688 5.81043 6.56803 5.25092 7.18259L6.26544 8.10624C6.54946 7.79427 6.90551 7.61217 7.55996 7.51178C8.25078 7.40581 9.17713 7.4039 10.5575 7.4039V6.0319ZM5.25092 7.18259C4.69232 7.79613 4.45258 8.56368 4.33917 9.49016C4.22743 10.403 4.22865 11.571 4.22865 13.0445H5.60065C5.60065 11.5356 5.60186 10.4668 5.70101 9.65685C5.79848 8.8605 5.9805 8.41921 6.26544 8.10624L5.25092 7.18259ZM4.22865 13.0445C4.22865 14.5181 4.22743 15.6861 4.33917 16.5989C4.45258 17.5254 4.69233 18.2929 5.25091 18.9065L6.26544 17.9828C5.9805 17.6699 5.79848 17.2286 5.70101 16.4322C5.60186 15.6222 5.60065 14.5535 5.60065 13.0445H4.22865ZM12.7424 20.1451C13.1082 20.1451 13.2819 20.1707 13.4088 20.2204C13.5207 20.2641 13.6578 20.3512 13.8787 20.6067L14.9164 19.7091C14.6136 19.3591 14.303 19.0968 13.9083 18.9425C13.5285 18.7941 13.1364 18.7731 12.7424 18.7731V20.1451ZM13.9125 20.643C14.1497 20.8802 14.5465 21.2788 15.0188 21.6161C15.4781 21.9442 16.1025 22.2839 16.7975 22.2839V20.9119C16.5326 20.9119 16.197 20.7716 15.8163 20.4997C15.4485 20.237 15.1254 19.9156 14.8826 19.6728L13.9125 20.643ZM16.7975 22.2839C16.9928 22.2839 17.1802 22.2771 17.3358 22.2487C17.4127 22.2347 17.5244 22.2083 17.6372 22.1487C17.7557 22.0862 17.9247 21.9593 18.008 21.7289C18.0897 21.5031 18.0429 21.304 18.0013 21.1928C17.9606 21.0842 17.9033 20.9995 17.8668 20.9494C17.7957 20.852 17.6972 20.7466 17.6328 20.6763C17.328 20.3432 17.0035 19.9593 17.0035 19.3704H15.6315C15.6315 20.529 16.306 21.2588 16.6207 21.6026C16.7112 21.7015 16.7438 21.738 16.7586 21.7583C16.765 21.7671 16.7393 21.7352 16.7163 21.6736C16.6923 21.6096 16.6492 21.452 16.7178 21.2623C16.788 21.068 16.9273 20.972 16.9966 20.9355C17.0602 20.9018 17.1033 20.8965 17.0896 20.899C17.0639 20.9037 16.9817 20.9119 16.7975 20.9119V22.2839ZM17.0035 19.3704C17.0035 19.5701 16.9103 19.706 16.8546 19.7677C16.8026 19.8255 16.7574 19.8498 16.7556 19.8507C16.7514 19.8531 16.7813 19.8378 16.8687 19.8119C16.9474 19.7885 17.0418 19.7653 17.1471 19.7412C17.2398 19.72 17.3673 19.6923 17.4575 19.6709L17.1411 18.3359C17.0008 18.3692 16.7022 18.4301 16.4782 18.4966C16.3652 18.5301 16.2171 18.5798 16.085 18.6538C16.0194 18.6906 15.9227 18.7524 15.8353 18.8494C15.7442 18.9505 15.6315 19.1275 15.6315 19.3704H17.0035ZM17.4576 19.6709C17.7328 19.6057 17.9934 19.5402 18.2298 19.4189C18.4877 19.2866 18.6743 19.1118 18.8613 18.9065L17.8467 17.9829C17.7058 18.1377 17.649 18.1749 17.6034 18.1983C17.5364 18.2327 17.4336 18.2666 17.141 18.336L17.4576 19.6709ZM18.8612 18.9065C19.4198 18.2929 19.6596 17.5254 19.773 16.5989C19.8847 15.6861 19.8835 14.5181 19.8835 13.0445H18.5115C18.5115 14.5535 18.5103 15.6222 18.4112 16.4322C18.3137 17.2286 18.1317 17.6699 17.8467 17.9828L18.8612 18.9065ZM19.8835 13.0445C19.8835 11.571 19.8847 10.403 19.773 9.49015C19.6596 8.56368 19.4198 7.79613 18.8612 7.18258L17.8467 8.10624C18.1317 8.41921 18.3137 8.86051 18.4112 9.65685C18.5103 10.4668 18.5115 11.5356 18.5115 13.0445H19.8835ZM18.8612 7.18258C18.2943 6.55985 17.5707 6.28396 16.6979 6.15507C15.8519 6.03014 14.7739 6.0319 13.4375 6.0319V7.4039C14.8164 7.4039 15.7749 7.40565 16.4974 7.51235C17.1931 7.61509 17.5701 7.80246 17.8467 8.10624L18.8612 7.18258ZM5.25091 18.9065C5.75215 19.457 6.35318 19.744 7.10211 19.8915C7.81628 20.0321 8.70387 20.0525 9.80391 20.0564L9.80875 18.6844C8.68665 18.6804 7.93109 18.6564 7.36719 18.5453C6.83805 18.4411 6.52608 18.2691 6.26544 17.9828L5.25091 18.9065Z" fill="white"/>
<path d="M11.487 15.5125C11.487 15.9595 11.8915 16.3219 12.3904 16.3219C12.8892 16.3219 13.2937 15.9595 13.2937 15.5125C13.2937 15.0656 12.8892 14.7032 12.3904 14.7032C11.8915 14.7032 11.487 15.0656 11.487 15.5125ZM9.06316 13.1724C9.06316 13.7353 9.57269 14.1918 10.2009 14.1918C11.0805 14.1918 11.1289 13.3261 12.3726 13.3261C13.3376 13.3261 13.5732 13.9286 14.0881 13.9286C14.5543 13.9286 14.9321 13.5898 14.9321 13.1724C14.9321 12.7549 14.5543 12.4162 14.0881 12.4162C13.5569 12.4162 13.3284 13.0054 12.3726 13.0054C11.1464 13.0054 11.0793 12.1527 10.2009 12.1527C9.57269 12.1527 9.06316 12.6092 9.06316 13.1724ZM14.511 10.6216C14.511 11.0686 14.9154 11.431 15.4143 11.431C15.9131 11.431 16.3176 11.0686 16.3176 10.6216C16.3176 10.1747 15.9131 9.81225 15.4143 9.81225C14.9154 9.81225 14.511 10.1744 14.511 10.6216ZM10.2371 10.4547C9.28127 10.4547 9.05277 9.86543 8.52158 9.86543C8.05538 9.86543 7.67761 10.2039 7.67761 10.6216C7.67761 11.0394 8.05538 11.3779 8.52158 11.3779C9.03645 11.3779 9.27207 10.7753 10.2371 10.7753C11.4805 10.7753 11.5289 11.6414 12.4088 11.6414C13.037 11.6414 13.5465 11.1848 13.5465 10.6216C13.5465 10.0585 13.037 9.60193 12.4088 9.60193C11.5304 9.60193 11.4633 10.4547 10.2371 10.4547Z" fill="white"/>
<path d="M10.5693 19.204L10.5592 19.684" stroke="white" stroke-width="1.96" stroke-linecap="round" stroke-linejoin="round"/>
<path d="M9.03664 4.40683C9.53865 4.23698 9.80787 3.69216 9.63796 3.18993C9.46804 2.6877 8.92333 2.41825 8.42131 2.5881C7.91929 2.75794 7.65007 3.30277 7.81999 3.80499C7.98991 4.30722 8.53462 4.57667 9.03664 4.40683Z" fill="white" stroke="white" stroke-width="0.588" stroke-linejoin="round"/>
<path d="M8.41406 4.44287L9.68755 3.93238C9.6574 5.02931 10.1778 5.76988 10.6653 6.3716L9.39185 6.8821C9.21932 5.67481 9.61209 5.59065 8.41406 4.44287Z" fill="white"/>
</svg>
