<svg width="286" height="254" viewBox="0 0 286 254" fill="none" xmlns="http://www.w3.org/2000/svg">
<path d="M135.778 106.195C135.778 114.225 142.257 120.737 150.248 120.737C158.24 120.737 164.719 114.225 164.719 106.195C164.719 98.1639 158.24 91.6525 150.248 91.6525C142.257 91.6525 135.778 98.1639 135.778 106.195ZM96.9479 64.1496C96.9479 74.2631 105.11 82.4657 115.174 82.4657C129.265 82.4657 130.04 66.9109 149.963 66.9109C165.423 66.9109 169.197 77.7362 177.445 77.7362C184.914 77.7362 190.965 71.6499 190.965 64.1496C190.965 56.6492 184.914 50.5629 177.445 50.5629C168.936 50.5629 165.275 61.1494 149.963 61.1494C130.32 61.1494 129.246 45.8286 115.174 45.8286C105.11 45.8286 96.9479 54.0313 96.9479 64.1496ZM184.22 18.3209C184.22 26.3516 190.699 32.863 198.691 32.863C206.682 32.863 213.161 26.3516 213.161 18.3209C213.161 10.2903 206.682 3.77884 198.691 3.77884C190.699 3.77884 184.22 10.2855 184.22 18.3209ZM115.754 15.3208C100.442 15.3208 96.7815 4.7343 88.272 4.7343C80.8037 4.7343 74.752 10.8158 74.752 18.3209C74.752 25.8261 80.8037 31.9076 88.272 31.9076C96.52 31.9076 100.295 21.0822 115.754 21.0822C135.673 21.0822 136.448 36.6419 150.543 36.6419C160.607 36.6419 168.77 28.4393 168.77 18.3209C168.77 8.20262 160.607 0 150.543 0C136.472 0 135.397 15.3208 115.754 15.3208Z" fill="url(#paint0_linear_2_2799)"/>
<path fill-rule="evenodd" clip-rule="evenodd" d="M205.053 160.746H207.467V169.895H205.053V160.746ZM181.767 192.618V160.746H184.181V175.5H207.467V192.618H205.053V177.683H184.181V192.618H181.767Z" fill="url(#paint1_linear_2_2799)"/>
<mask id="mask0_2_2799" style="mask-type:luminance" maskUnits="userSpaceOnUse" x="181" y="160" width="27" height="33">
<path d="M205.049 160.74H207.463V169.889H205.049V160.74ZM181.764 192.612V160.74H184.177V175.494H207.463V192.612H205.049V177.677H184.177V192.612H181.764Z" fill="white"/>
</mask>
<g mask="url(#mask0_2_2799)">
<path d="M207.466 160.74H181.764V192.612H207.466V160.74Z" fill="url(#paint2_linear_2_2799)"/>
</g>
<path d="M82.0166 160.746H79.6005V192.616H82.0166V160.746Z" fill="url(#paint3_linear_2_2799)"/>
<mask id="mask1_2_2799" style="mask-type:luminance" maskUnits="userSpaceOnUse" x="79" y="160" width="4" height="33">
<path d="M82.0177 160.74H79.6016V192.61H82.0177V160.74Z" fill="white"/>
</mask>
<g mask="url(#mask1_2_2799)">
<path d="M82.0177 160.74H79.6016V192.61H82.0177V160.74Z" fill="url(#paint4_linear_2_2799)"/>
</g>
<path fill-rule="evenodd" clip-rule="evenodd" d="M48.0123 192.733H50.1559L64.4959 160.635H61.9351L49.1287 189.962L36.3706 160.635H33.6699L48.0123 192.733Z" fill="url(#paint5_linear_2_2799)"/>
<mask id="mask2_2_2799" style="mask-type:luminance" maskUnits="userSpaceOnUse" x="33" y="160" width="32" height="33">
<path d="M48.0125 192.727H50.1562L64.4961 160.629H61.9353L49.129 189.957L36.3708 160.629H33.6702L48.0125 192.727Z" fill="white"/>
</mask>
<g mask="url(#mask2_2_2799)">
<path d="M64.4937 160.629H33.6702V192.727H64.4937V160.629Z" fill="url(#paint6_linear_2_2799)"/>
</g>
<path fill-rule="evenodd" clip-rule="evenodd" d="M234.464 176.348L223.145 160.746H226.174L235.819 174.283L234.464 176.348ZM237.119 192.618V180.006L237.03 179.881L239.827 175.851L250.62 160.746H253.508L239.535 179.961V192.618H237.119Z" fill="url(#paint7_linear_2_2799)"/>
<mask id="mask3_2_2799" style="mask-type:luminance" maskUnits="userSpaceOnUse" x="223" y="160" width="31" height="33">
<path d="M234.463 176.343L223.145 160.74H226.173L235.818 174.277L234.463 176.343ZM237.118 192.612V180L237.029 179.875L239.826 175.845L250.619 160.74H253.508L239.534 179.955V192.612H237.118Z" fill="white"/>
</mask>
<g mask="url(#mask3_2_2799)">
<path d="M253.505 160.74H223.145V192.612H253.505V160.74Z" fill="url(#paint8_linear_2_2799)"/>
</g>
<path fill-rule="evenodd" clip-rule="evenodd" d="M98.5396 192.618H124.287V190.484H101.985L124.287 162.064V160.746H99.3304V162.882H120.842L98.5396 191.3V192.618Z" fill="url(#paint9_linear_2_2799)"/>
<mask id="mask4_2_2799" style="mask-type:luminance" maskUnits="userSpaceOnUse" x="98" y="160" width="27" height="33">
<path d="M98.5422 192.612H124.29V190.478H101.988L124.29 162.058V160.74H99.3331V162.877H120.844L98.5422 191.294V192.612Z" fill="white"/>
</mask>
<g mask="url(#mask4_2_2799)">
<path d="M124.29 160.74H98.5422V192.612H124.29V160.74Z" fill="url(#paint10_linear_2_2799)"/>
</g>
<path fill-rule="evenodd" clip-rule="evenodd" d="M140.841 192.212H166.592V190.078H144.29L166.592 161.658V160.34H141.635V162.476H163.146L140.841 190.894V192.212Z" fill="url(#paint11_linear_2_2799)"/>
<mask id="mask5_2_2799" style="mask-type:luminance" maskUnits="userSpaceOnUse" x="140" y="160" width="27" height="33">
<path d="M140.841 192.206H166.591V190.072H144.289L166.591 161.652V160.334H141.635V162.47H163.146L140.841 190.888V192.206Z" fill="white"/>
</mask>
<g mask="url(#mask5_2_2799)">
<path d="M166.591 160.334H140.841V192.206H166.591V160.334Z" fill="url(#paint12_linear_2_2799)"/>
</g>
<path d="M6.33484 234.718V235.469H3.82163V243.773H2.9148V235.469H0.38864V234.718H6.33484ZM11.135 236.571C11.6704 236.571 12.1497 236.683 12.5729 236.907C13.0047 237.132 13.3416 237.477 13.5834 237.944C13.8338 238.402 13.9591 238.963 13.9591 239.628V243.773H13.0652V239.732C13.0652 238.963 12.8709 238.376 12.4822 237.97C12.1022 237.564 11.5797 237.361 10.9147 237.361C10.2324 237.361 9.68834 237.577 9.28243 238.009C8.87652 238.44 8.67356 239.075 8.67356 239.913V243.773H7.76673V234.187H8.67356V237.905C8.89811 237.482 9.22629 237.154 9.65812 236.92C10.0986 236.687 10.5909 236.571 11.135 236.571ZM16.418 235.366C16.2367 235.366 16.0812 235.301 15.9517 235.172C15.8221 235.042 15.7573 234.882 15.7573 234.692C15.7573 234.502 15.8221 234.347 15.9517 234.226C16.0812 234.096 16.2367 234.032 16.418 234.032C16.5994 234.032 16.7549 234.096 16.8844 234.226C17.0139 234.347 17.0787 234.502 17.0787 234.692C17.0787 234.882 17.0139 235.042 16.8844 235.172C16.7549 235.301 16.5994 235.366 16.418 235.366ZM16.8714 236.7V243.773H15.9646V236.7H16.8714ZM21.3604 243.877C20.5486 243.877 19.8836 243.691 19.3654 243.32C18.8559 242.94 18.5709 242.426 18.5104 241.778H19.4431C19.4863 242.176 19.672 242.5 20.0002 242.75C20.337 242.992 20.7861 243.113 21.3475 243.113C21.8398 243.113 22.2241 242.996 22.5005 242.763C22.7855 242.53 22.928 242.24 22.928 241.895C22.928 241.653 22.8502 241.455 22.6948 241.299C22.5393 241.144 22.3407 241.023 22.0989 240.936C21.8657 240.841 21.5461 240.742 21.1402 240.638C20.6134 240.5 20.1859 240.362 19.8577 240.224C19.5295 240.086 19.2488 239.883 19.0156 239.615C18.7911 239.339 18.6788 238.972 18.6788 238.514C18.6788 238.168 18.7825 237.849 18.9897 237.555C19.197 237.262 19.4906 237.028 19.8707 236.856C20.2507 236.683 20.6825 236.597 21.1661 236.597C21.9261 236.597 22.5393 236.791 23.0057 237.18C23.4721 237.56 23.7225 238.086 23.7571 238.76H22.8502C22.8243 238.345 22.6602 238.013 22.358 237.762C22.0643 237.503 21.6584 237.374 21.1402 237.374C20.6825 237.374 20.3111 237.482 20.0261 237.698C19.7411 237.914 19.5986 238.181 19.5986 238.501C19.5986 238.777 19.6807 239.006 19.8447 239.187C20.0175 239.36 20.2291 239.498 20.4795 239.602C20.73 239.697 21.0668 239.805 21.49 239.926C21.9995 240.064 22.4055 240.198 22.7077 240.327C23.01 240.457 23.2691 240.647 23.485 240.897C23.7009 241.148 23.8132 241.48 23.8218 241.895C23.8218 242.275 23.7182 242.616 23.5109 242.918C23.3036 243.212 23.0143 243.445 22.643 243.618C22.2716 243.791 21.8441 243.877 21.3604 243.877ZM29.5372 235.366C29.3558 235.366 29.2003 235.301 29.0708 235.172C28.9413 235.042 28.8765 234.882 28.8765 234.692C28.8765 234.502 28.9413 234.347 29.0708 234.226C29.2003 234.096 29.3558 234.032 29.5372 234.032C29.7185 234.032 29.874 234.096 30.0035 234.226C30.1331 234.347 30.1979 234.502 30.1979 234.692C30.1979 234.882 30.1331 235.042 30.0035 235.172C29.874 235.301 29.7185 235.366 29.5372 235.366ZM29.9906 236.7V243.773H29.0838V236.7H29.9906ZM34.4796 243.877C33.6678 243.877 33.0027 243.691 32.4846 243.32C31.975 242.94 31.69 242.426 31.6296 241.778H32.5623C32.6055 242.176 32.7912 242.5 33.1193 242.75C33.4562 242.992 33.9053 243.113 34.4666 243.113C34.9589 243.113 35.3432 242.996 35.6196 242.763C35.9046 242.53 36.0471 242.24 36.0471 241.895C36.0471 241.653 35.9694 241.455 35.8139 241.299C35.6585 241.144 35.4598 241.023 35.218 240.936C34.9848 240.841 34.6653 240.742 34.2594 240.638C33.7325 240.5 33.305 240.362 32.9768 240.224C32.6487 240.086 32.368 239.883 32.1348 239.615C31.9102 239.339 31.798 238.972 31.798 238.514C31.798 238.168 31.9016 237.849 32.1089 237.555C32.3162 237.262 32.6098 237.028 32.9898 236.856C33.3698 236.683 33.8016 236.597 34.2853 236.597C35.0453 236.597 35.6585 236.791 36.1248 237.18C36.5912 237.56 36.8417 238.086 36.8762 238.76H35.9694C35.9435 238.345 35.7794 238.013 35.4771 237.762C35.1835 237.503 34.7775 237.374 34.2594 237.374C33.8016 237.374 33.4303 237.482 33.1453 237.698C32.8602 237.914 32.7177 238.181 32.7177 238.501C32.7177 238.777 32.7998 239.006 32.9639 239.187C33.1366 239.36 33.3482 239.498 33.5987 239.602C33.8491 239.697 34.1859 239.805 34.6091 239.926C35.1187 240.064 35.5246 240.198 35.8269 240.327C36.1291 240.457 36.3882 240.647 36.6041 240.897C36.8201 241.148 36.9323 241.48 36.941 241.895C36.941 242.275 36.8373 242.616 36.6301 242.918C36.4228 243.212 36.1335 243.445 35.7621 243.618C35.3907 243.791 34.9632 243.877 34.4796 243.877ZM43.3818 237.465V241.856C43.3818 242.288 43.4638 242.586 43.6279 242.75C43.792 242.914 44.0813 242.996 44.4959 242.996H45.325V243.773H44.3534C43.7143 243.773 43.2393 243.627 42.9284 243.333C42.6174 243.031 42.462 242.538 42.462 241.856V237.465H41.4774V236.7H42.462V234.925H43.3818V236.7H45.325V237.465H43.3818ZM50.1887 236.571C50.7242 236.571 51.2035 236.683 51.6267 236.907C52.0585 237.132 52.3954 237.477 52.6372 237.944C52.8876 238.402 53.0129 238.963 53.0129 239.628V243.773H52.119V239.732C52.119 238.963 51.9247 238.376 51.536 237.97C51.156 237.564 50.6335 237.361 49.9685 237.361C49.2862 237.361 48.7421 237.577 48.3362 238.009C47.9303 238.44 47.7274 239.075 47.7274 239.913V243.773H46.8205V234.187H47.7274V237.905C47.9519 237.482 48.2801 237.154 48.7119 236.92C49.1524 236.687 49.6447 236.571 50.1887 236.571ZM61.418 239.874C61.418 240.185 61.4094 240.422 61.3921 240.587H55.5236C55.5496 241.122 55.6791 241.58 55.9123 241.96C56.1455 242.34 56.4521 242.629 56.8321 242.828C57.2121 243.018 57.6266 243.113 58.0757 243.113C58.663 243.113 59.1553 242.97 59.5526 242.685C59.9585 242.4 60.2262 242.016 60.3557 241.532H61.3144C61.1417 242.223 60.7703 242.789 60.2003 243.229C59.6389 243.661 58.9307 243.877 58.0757 243.877C57.4107 243.877 56.8148 243.73 56.288 243.437C55.7611 243.134 55.3466 242.711 55.0443 242.167C54.7507 241.614 54.6039 240.971 54.6039 240.237C54.6039 239.503 54.7507 238.859 55.0443 238.307C55.338 237.754 55.7482 237.331 56.275 237.037C56.8018 236.743 57.4021 236.597 58.0757 236.597C58.7494 236.597 59.3366 236.743 59.8376 237.037C60.3471 237.331 60.7357 237.728 61.0035 238.229C61.2798 238.721 61.418 239.27 61.418 239.874ZM60.4982 239.848C60.5069 239.321 60.3989 238.872 60.1744 238.501C59.9585 238.13 59.6605 237.849 59.2805 237.659C58.9005 237.469 58.486 237.374 58.0369 237.374C57.3632 237.374 56.7889 237.59 56.3139 238.022C55.8389 238.453 55.5755 239.062 55.5236 239.848H60.4982ZM71.5289 234.718V235.469H67.5389V238.851H70.9071V239.602H67.5389V243.773H66.6321V234.718H71.5289ZM79.1484 236.7V243.773H78.2416V242.53C78.0343 242.97 77.7148 243.307 77.283 243.54C76.8511 243.773 76.3675 243.89 75.832 243.89C74.9857 243.89 74.2947 243.631 73.7593 243.113C73.2238 242.586 72.9561 241.826 72.9561 240.833V236.7H73.85V240.729C73.85 241.498 74.04 242.085 74.42 242.491C74.8086 242.897 75.3354 243.1 76.0004 243.1C76.6827 243.1 77.2268 242.884 77.6327 242.452C78.0386 242.02 78.2416 241.385 78.2416 240.548V236.7H79.1484ZM82.3976 237.465V241.856C82.3976 242.288 82.4797 242.586 82.6438 242.75C82.8079 242.914 83.0972 242.996 83.5117 242.996H84.3408V243.773H83.3692C82.7301 243.773 82.2551 243.627 81.9442 243.333C81.6333 243.031 81.4778 242.538 81.4778 241.856V237.465H80.4933V236.7H81.4778V234.925H82.3976V236.7H84.3408V237.465H82.3976ZM91.9639 236.7V243.773H91.0571V242.53C90.8498 242.97 90.5303 243.307 90.0985 243.54C89.6666 243.773 89.183 243.89 88.6475 243.89C87.8012 243.89 87.1103 243.631 86.5748 243.113C86.0393 242.586 85.7716 241.826 85.7716 240.833V236.7H86.6655V240.729C86.6655 241.498 86.8555 242.085 87.2355 242.491C87.6241 242.897 88.1509 243.1 88.816 243.1C89.4982 243.1 90.0423 242.884 90.4482 242.452C90.8542 242.02 91.0571 241.385 91.0571 240.548V236.7H91.9639ZM94.9411 237.957C95.1397 237.516 95.442 237.175 95.8479 236.933C96.2625 236.692 96.7677 236.571 97.3636 236.571V237.516H97.1175C96.4611 237.516 95.9343 237.693 95.537 238.047C95.1397 238.402 94.9411 238.993 94.9411 239.822V243.773H94.0343V236.7H94.9411V237.957ZM105.127 239.874C105.127 240.185 105.119 240.422 105.102 240.587H99.233C99.2589 241.122 99.3885 241.58 99.6217 241.96C99.8549 242.34 100.161 242.629 100.541 242.828C100.921 243.018 101.336 243.113 101.785 243.113C102.372 243.113 102.865 242.97 103.262 242.685C103.668 242.4 103.936 242.016 104.065 241.532H105.024C104.851 242.223 104.48 242.789 103.91 243.229C103.348 243.661 102.64 243.877 101.785 243.877C101.12 243.877 100.524 243.73 99.9974 243.437C99.4705 243.134 99.056 242.711 98.7537 242.167C98.4601 241.614 98.3133 240.971 98.3133 240.237C98.3133 239.503 98.4601 238.859 98.7537 238.307C99.0474 237.754 99.4576 237.331 99.9844 237.037C100.511 236.743 101.111 236.597 101.785 236.597C102.459 236.597 103.046 236.743 103.547 237.037C104.056 237.331 104.445 237.728 104.713 238.229C104.989 238.721 105.127 239.27 105.127 239.874ZM104.208 239.848C104.216 239.321 104.108 238.872 103.884 238.501C103.668 238.13 103.37 237.849 102.99 237.659C102.61 237.469 102.195 237.374 101.746 237.374C101.073 237.374 100.498 237.59 100.023 238.022C99.5483 238.453 99.2849 239.062 99.233 239.848H104.208ZM113.438 243.877C112.773 243.877 112.172 243.73 111.637 243.437C111.11 243.134 110.691 242.711 110.38 242.167C110.078 241.614 109.927 240.971 109.927 240.237C109.927 239.503 110.082 238.864 110.393 238.32C110.704 237.767 111.127 237.344 111.663 237.05C112.198 236.748 112.799 236.597 113.464 236.597C114.129 236.597 114.729 236.748 115.264 237.05C115.808 237.344 116.232 237.767 116.534 238.32C116.845 238.864 117 239.503 117 240.237C117 240.962 116.845 241.601 116.534 242.154C116.223 242.707 115.795 243.134 115.251 243.437C114.707 243.73 114.103 243.877 113.438 243.877ZM113.438 243.087C113.904 243.087 114.336 242.983 114.733 242.776C115.13 242.56 115.45 242.24 115.692 241.817C115.942 241.385 116.067 240.859 116.067 240.237C116.067 239.615 115.947 239.092 115.705 238.669C115.463 238.237 115.143 237.918 114.746 237.711C114.349 237.495 113.917 237.387 113.451 237.387C112.984 237.387 112.552 237.495 112.155 237.711C111.758 237.918 111.438 238.237 111.196 238.669C110.963 239.092 110.847 239.615 110.847 240.237C110.847 240.859 110.963 241.385 111.196 241.817C111.438 242.24 111.754 242.56 112.142 242.776C112.539 242.983 112.971 243.087 113.438 243.087ZM121.438 237.465H119.793V243.773H118.886V237.465H117.902V236.7H118.886V236.208C118.886 235.439 119.081 234.874 119.469 234.511C119.867 234.148 120.506 233.967 121.387 233.967V234.744C120.799 234.744 120.385 234.856 120.143 235.081C119.91 235.305 119.793 235.681 119.793 236.208V236.7H121.438V237.465ZM133.144 234.718V243.773H132.238V239.537H127.328V243.773H126.421V234.718H127.328V238.786H132.238V234.718H133.144ZM141.613 239.874C141.613 240.185 141.604 240.422 141.587 240.587H135.719C135.745 241.122 135.874 241.58 136.107 241.96C136.34 242.34 136.647 242.629 137.027 242.828C137.407 243.018 137.822 243.113 138.271 243.113C138.858 243.113 139.35 242.97 139.748 242.685C140.153 242.4 140.421 242.016 140.551 241.532H141.509C141.337 242.223 140.965 242.789 140.395 243.229C139.834 243.661 139.126 243.877 138.271 243.877C137.606 243.877 137.01 243.73 136.483 243.437C135.956 243.134 135.542 242.711 135.239 242.167C134.946 241.614 134.799 240.971 134.799 240.237C134.799 239.503 134.946 238.859 135.239 238.307C135.533 237.754 135.943 237.331 136.47 237.037C136.997 236.743 137.597 236.597 138.271 236.597C138.944 236.597 139.532 236.743 140.033 237.037C140.542 237.331 140.931 237.728 141.198 238.229C141.475 238.721 141.613 239.27 141.613 239.874ZM140.693 239.848C140.702 239.321 140.594 238.872 140.369 238.501C140.153 238.13 139.856 237.849 139.476 237.659C139.096 237.469 138.681 237.374 138.232 237.374C137.558 237.374 136.984 237.59 136.509 238.022C136.034 238.453 135.77 239.062 135.719 239.848H140.693ZM142.858 240.224C142.858 239.498 143 238.864 143.285 238.32C143.579 237.767 143.98 237.344 144.49 237.05C145.008 236.748 145.591 236.597 146.239 236.597C146.912 236.597 147.491 236.752 147.975 237.063C148.467 237.374 148.821 237.771 149.037 238.255V236.7H149.944V243.773H149.037V242.206C148.812 242.69 148.454 243.091 147.962 243.411C147.478 243.722 146.899 243.877 146.226 243.877C145.587 243.877 145.008 243.726 144.49 243.424C143.98 243.121 143.579 242.694 143.285 242.141C143 241.588 142.858 240.949 142.858 240.224ZM149.037 240.237C149.037 239.667 148.92 239.166 148.687 238.734C148.454 238.302 148.134 237.97 147.729 237.737C147.331 237.503 146.891 237.387 146.407 237.387C145.906 237.387 145.457 237.499 145.06 237.724C144.663 237.948 144.347 238.276 144.114 238.708C143.89 239.131 143.777 239.637 143.777 240.224C143.777 240.802 143.89 241.312 144.114 241.753C144.347 242.184 144.663 242.517 145.06 242.75C145.457 242.975 145.906 243.087 146.407 243.087C146.891 243.087 147.331 242.97 147.729 242.737C148.134 242.504 148.454 242.171 148.687 241.74C148.92 241.308 149.037 240.807 149.037 240.237ZM152.921 234.187V243.773H152.014V234.187H152.921ZM156.153 237.465V241.856C156.153 242.288 156.235 242.586 156.399 242.75C156.563 242.914 156.853 242.996 157.267 242.996H158.096V243.773H157.125C156.486 243.773 156.011 243.627 155.7 243.333C155.389 243.031 155.233 242.538 155.233 241.856V237.465H154.249V236.7H155.233V234.925H156.153V236.7H158.096V237.465H156.153ZM162.96 236.571C163.496 236.571 163.975 236.683 164.398 236.907C164.83 237.132 165.167 237.477 165.409 237.944C165.659 238.402 165.784 238.963 165.784 239.628V243.773H164.89V239.732C164.89 238.963 164.696 238.376 164.308 237.97C163.928 237.564 163.405 237.361 162.74 237.361C162.058 237.361 161.514 237.577 161.108 238.009C160.702 238.44 160.499 239.075 160.499 239.913V243.773H159.592V234.187H160.499V237.905C160.723 237.482 161.052 237.154 161.483 236.92C161.924 236.687 162.416 236.571 162.96 236.571ZM168.619 242.271L167.272 245.665H166.65L167.609 242.271H168.619ZM178.883 234.718V235.469H176.369V243.773H175.463V235.469H172.936V234.718H178.883ZM183.683 236.571C184.218 236.571 184.697 236.683 185.121 236.907C185.552 237.132 185.889 237.477 186.131 237.944C186.382 238.402 186.507 238.963 186.507 239.628V243.773H185.613V239.732C185.613 238.963 185.419 238.376 185.03 237.97C184.65 237.564 184.127 237.361 183.462 237.361C182.78 237.361 182.236 237.577 181.83 238.009C181.424 238.44 181.221 239.075 181.221 239.913V243.773H180.314V234.187H181.221V237.905C181.446 237.482 181.774 237.154 182.206 236.92C182.646 236.687 183.139 236.571 183.683 236.571ZM194.912 239.874C194.912 240.185 194.903 240.422 194.886 240.587H189.018C189.043 241.122 189.173 241.58 189.406 241.96C189.639 242.34 189.946 242.629 190.326 242.828C190.706 243.018 191.121 243.113 191.57 243.113C192.157 243.113 192.649 242.97 193.046 242.685C193.452 242.4 193.72 242.016 193.85 241.532H194.808C194.636 242.223 194.264 242.789 193.694 243.229C193.133 243.661 192.425 243.877 191.57 243.877C190.905 243.877 190.309 243.73 189.782 243.437C189.255 243.134 188.841 242.711 188.538 242.167C188.245 241.614 188.098 240.971 188.098 240.237C188.098 239.503 188.245 238.859 188.538 238.307C188.832 237.754 189.242 237.331 189.769 237.037C190.296 236.743 190.896 236.597 191.57 236.597C192.243 236.597 192.831 236.743 193.331 237.037C193.841 237.331 194.23 237.728 194.497 238.229C194.774 238.721 194.912 239.27 194.912 239.874ZM193.992 239.848C194.001 239.321 193.893 238.872 193.668 238.501C193.452 238.13 193.154 237.849 192.774 237.659C192.394 237.469 191.98 237.374 191.531 237.374C190.857 237.374 190.283 237.59 189.808 238.022C189.333 238.453 189.069 239.062 189.018 239.848H193.992ZM205.023 234.718V235.469H201.033V238.851H204.401V239.602H201.033V243.773H200.126V234.718H205.023ZM212.642 236.7V243.773H211.736V242.53C211.528 242.97 211.209 243.307 210.777 243.54C210.345 243.773 209.861 243.89 209.326 243.89C208.48 243.89 207.789 243.631 207.253 243.113C206.718 242.586 206.45 241.826 206.45 240.833V236.7H207.344V240.729C207.344 241.498 207.534 242.085 207.914 242.491C208.303 242.897 208.829 243.1 209.494 243.1C210.177 243.1 210.721 242.884 211.127 242.452C211.533 242.02 211.736 241.385 211.736 240.548V236.7H212.642ZM215.892 237.465V241.856C215.892 242.288 215.974 242.586 216.138 242.75C216.302 242.914 216.591 242.996 217.006 242.996H217.835V243.773H216.863C216.224 243.773 215.749 243.627 215.438 243.333C215.127 243.031 214.972 242.538 214.972 241.856V237.465H213.987V236.7H214.972V234.925H215.892V236.7H217.835V237.465H215.892ZM225.458 236.7V243.773H224.551V242.53C224.344 242.97 224.024 243.307 223.592 243.54C223.161 243.773 222.677 243.89 222.141 243.89C221.295 243.89 220.604 243.631 220.069 243.113C219.533 242.586 219.266 241.826 219.266 240.833V236.7H220.159V240.729C220.159 241.498 220.349 242.085 220.729 242.491C221.118 242.897 221.645 243.1 222.31 243.1C222.992 243.1 223.536 242.884 223.942 242.452C224.348 242.02 224.551 241.385 224.551 240.548V236.7H225.458ZM228.435 237.957C228.634 237.516 228.936 237.175 229.342 236.933C229.756 236.692 230.262 236.571 230.858 236.571V237.516H230.611C229.955 237.516 229.428 237.693 229.031 238.047C228.634 238.402 228.435 238.993 228.435 239.822V243.773H227.528V236.7H228.435V237.957ZM238.621 239.874C238.621 240.185 238.613 240.422 238.595 240.587H232.727C232.753 241.122 232.882 241.58 233.116 241.96C233.349 242.34 233.655 242.629 234.035 242.828C234.415 243.018 234.83 243.113 235.279 243.113C235.866 243.113 236.359 242.97 236.756 242.685C237.162 242.4 237.429 242.016 237.559 241.532H238.518C238.345 242.223 237.974 242.789 237.404 243.229C236.842 243.661 236.134 243.877 235.279 243.877C234.614 243.877 234.018 243.73 233.491 243.437C232.964 243.134 232.55 242.711 232.248 242.167C231.954 241.614 231.807 240.971 231.807 240.237C231.807 239.503 231.954 238.859 232.248 238.307C232.541 237.754 232.951 237.331 233.478 237.037C234.005 236.743 234.605 236.597 235.279 236.597C235.953 236.597 236.54 236.743 237.041 237.037C237.55 237.331 237.939 237.728 238.207 238.229C238.483 238.721 238.621 239.27 238.621 239.874ZM237.702 239.848C237.71 239.321 237.602 238.872 237.378 238.501C237.162 238.13 236.864 237.849 236.484 237.659C236.104 237.469 235.689 237.374 235.24 237.374C234.567 237.374 233.992 237.59 233.517 238.022C233.042 238.453 232.779 239.062 232.727 239.848H237.702ZM244.289 235.366C244.107 235.366 243.952 235.301 243.822 235.172C243.693 235.042 243.628 234.882 243.628 234.692C243.628 234.502 243.693 234.347 243.822 234.226C243.952 234.096 244.107 234.032 244.289 234.032C244.47 234.032 244.626 234.096 244.755 234.226C244.885 234.347 244.949 234.502 244.949 234.692C244.949 234.882 244.885 235.042 244.755 235.172C244.626 235.301 244.47 235.366 244.289 235.366ZM244.742 236.7V243.773H243.835V236.7H244.742ZM249.231 243.877C248.419 243.877 247.754 243.691 247.236 243.32C246.727 242.94 246.442 242.426 246.381 241.778H247.314C247.357 242.176 247.543 242.5 247.871 242.75C248.208 242.992 248.657 243.113 249.218 243.113C249.711 243.113 250.095 242.996 250.371 242.763C250.656 242.53 250.799 242.24 250.799 241.895C250.799 241.653 250.721 241.455 250.566 241.299C250.41 241.144 250.211 241.023 249.97 240.936C249.736 240.841 249.417 240.742 249.011 240.638C248.484 240.5 248.057 240.362 247.728 240.224C247.4 240.086 247.12 239.883 246.886 239.615C246.662 239.339 246.55 238.972 246.55 238.514C246.55 238.168 246.653 237.849 246.86 237.555C247.068 237.262 247.361 237.028 247.741 236.856C248.121 236.683 248.553 236.597 249.037 236.597C249.797 236.597 250.41 236.791 250.876 237.18C251.343 237.56 251.593 238.086 251.628 238.76H250.721C250.695 238.345 250.531 238.013 250.229 237.762C249.935 237.503 249.529 237.374 249.011 237.374C248.553 237.374 248.182 237.482 247.897 237.698C247.612 237.914 247.469 238.181 247.469 238.501C247.469 238.777 247.551 239.006 247.715 239.187C247.888 239.36 248.1 239.498 248.35 239.602C248.601 239.697 248.938 239.805 249.361 239.926C249.87 240.064 250.276 240.198 250.578 240.327C250.881 240.457 251.14 240.647 251.356 240.897C251.572 241.148 251.684 241.48 251.693 241.895C251.693 242.275 251.589 242.616 251.382 242.918C251.174 243.212 250.885 243.445 250.514 243.618C250.142 243.791 249.715 243.877 249.231 243.877ZM263.678 234.718V243.773H262.771V239.537H257.861V243.773H256.955V234.718H257.861V238.786H262.771V234.718H263.678ZM272.147 239.874C272.147 240.185 272.138 240.422 272.121 240.587H266.252C266.278 241.122 266.408 241.58 266.641 241.96C266.874 242.34 267.181 242.629 267.561 242.828C267.941 243.018 268.355 243.113 268.804 243.113C269.392 243.113 269.884 242.97 270.281 242.685C270.687 242.4 270.955 242.016 271.084 241.532H272.043C271.87 242.223 271.499 242.789 270.929 243.229C270.368 243.661 269.659 243.877 268.804 243.877C268.139 243.877 267.543 243.73 267.017 243.437C266.49 243.134 266.075 242.711 265.773 242.167C265.479 241.614 265.332 240.971 265.332 240.237C265.332 239.503 265.479 238.859 265.773 238.307C266.067 237.754 266.477 237.331 267.004 237.037C267.53 236.743 268.131 236.597 268.804 236.597C269.478 236.597 270.065 236.743 270.566 237.037C271.076 237.331 271.464 237.728 271.732 238.229C272.008 238.721 272.147 239.27 272.147 239.874ZM271.227 239.848C271.235 239.321 271.128 238.872 270.903 238.501C270.687 238.13 270.389 237.849 270.009 237.659C269.629 237.469 269.215 237.374 268.765 237.374C268.092 237.374 267.517 237.59 267.042 238.022C266.567 238.453 266.304 239.062 266.252 239.848H271.227ZM274.713 237.957C274.911 237.516 275.213 237.175 275.619 236.933C276.034 236.692 276.539 236.571 277.135 236.571V237.516H276.889C276.233 237.516 275.706 237.693 275.308 238.047C274.911 238.402 274.713 238.993 274.713 239.822V243.773H273.806V236.7H274.713V237.957ZM284.899 239.874C284.899 240.185 284.89 240.422 284.873 240.587H279.004C279.03 241.122 279.16 241.58 279.393 241.96C279.626 242.34 279.933 242.629 280.313 242.828C280.693 243.018 281.107 243.113 281.557 243.113C282.144 243.113 282.636 242.97 283.033 242.685C283.439 242.4 283.707 242.016 283.837 241.532H284.795C284.623 242.223 284.251 242.789 283.681 243.229C283.12 243.661 282.412 243.877 281.557 243.877C280.892 243.877 280.296 243.73 279.769 243.437C279.242 243.134 278.827 242.711 278.525 242.167C278.232 241.614 278.085 240.971 278.085 240.237C278.085 239.503 278.232 238.859 278.525 238.307C278.819 237.754 279.229 237.331 279.756 237.037C280.283 236.743 280.883 236.597 281.557 236.597C282.23 236.597 282.817 236.743 283.318 237.037C283.828 237.331 284.217 237.728 284.484 238.229C284.761 238.721 284.899 239.27 284.899 239.874ZM283.979 239.848C283.988 239.321 283.88 238.872 283.655 238.501C283.439 238.13 283.141 237.849 282.761 237.659C282.381 237.469 281.967 237.374 281.518 237.374C280.844 237.374 280.27 237.59 279.795 238.022C279.32 238.453 279.056 239.062 279.004 239.848H283.979Z" fill="white"/>
<defs>
<linearGradient id="paint0_linear_2_2799" x1="3.80035" y1="60.036" x2="333.998" y2="60.036" gradientUnits="userSpaceOnUse">
<stop/>
<stop offset="0.482292" stop-color="white" stop-opacity="0.45"/>
<stop offset="1" stop-color="white" stop-opacity="0"/>
</linearGradient>
<linearGradient id="paint1_linear_2_2799" x1="194.617" y1="160.746" x2="194.617" y2="192.618" gradientUnits="userSpaceOnUse">
<stop offset="0.260417"/>
<stop offset="1" stop-color="#605F5F" stop-opacity="0.77"/>
</linearGradient>
<linearGradient id="paint2_linear_2_2799" x1="194.615" y1="160.74" x2="194.615" y2="192.612" gradientUnits="userSpaceOnUse">
<stop offset="0.260417" stop-color="white"/>
<stop offset="1" stop-color="#AEAEAE" stop-opacity="0.77"/>
</linearGradient>
<linearGradient id="paint3_linear_2_2799" x1="80.8085" y1="160.746" x2="80.8085" y2="192.616" gradientUnits="userSpaceOnUse">
<stop offset="0.260417"/>
<stop offset="1" stop-color="#605F5F" stop-opacity="0.77"/>
</linearGradient>
<linearGradient id="paint4_linear_2_2799" x1="80.8096" y1="160.74" x2="80.8096" y2="192.61" gradientUnits="userSpaceOnUse">
<stop offset="0.260417" stop-color="white"/>
<stop offset="1" stop-color="#AEAEAE" stop-opacity="0.77"/>
</linearGradient>
<linearGradient id="paint5_linear_2_2799" x1="49.0829" y1="160.635" x2="49.0829" y2="192.733" gradientUnits="userSpaceOnUse">
<stop offset="0.260417"/>
<stop offset="1" stop-color="#605F5F" stop-opacity="0.77"/>
</linearGradient>
<linearGradient id="paint6_linear_2_2799" x1="49.0819" y1="160.629" x2="49.0819" y2="192.727" gradientUnits="userSpaceOnUse">
<stop offset="0.260417" stop-color="white"/>
<stop offset="1" stop-color="#AEAEAE" stop-opacity="0.77"/>
</linearGradient>
<linearGradient id="paint7_linear_2_2799" x1="238.327" y1="160.746" x2="238.327" y2="192.618" gradientUnits="userSpaceOnUse">
<stop offset="0.260417"/>
<stop offset="1" stop-color="#605F5F" stop-opacity="0.77"/>
</linearGradient>
<linearGradient id="paint8_linear_2_2799" x1="238.325" y1="160.74" x2="238.325" y2="192.612" gradientUnits="userSpaceOnUse">
<stop offset="0.260417" stop-color="white"/>
<stop offset="1" stop-color="#AEAEAE" stop-opacity="0.77"/>
</linearGradient>
<linearGradient id="paint9_linear_2_2799" x1="111.413" y1="160.746" x2="111.413" y2="192.618" gradientUnits="userSpaceOnUse">
<stop offset="0.260417"/>
<stop offset="1" stop-color="#605F5F" stop-opacity="0.77"/>
</linearGradient>
<linearGradient id="paint10_linear_2_2799" x1="111.416" y1="160.74" x2="111.416" y2="192.612" gradientUnits="userSpaceOnUse">
<stop offset="0.260417" stop-color="white"/>
<stop offset="1" stop-color="#AEAEAE" stop-opacity="0.77"/>
</linearGradient>
<linearGradient id="paint11_linear_2_2799" x1="153.717" y1="160.34" x2="153.717" y2="192.212" gradientUnits="userSpaceOnUse">
<stop offset="0.260417"/>
<stop offset="1" stop-color="#605F5F" stop-opacity="0.77"/>
</linearGradient>
<linearGradient id="paint12_linear_2_2799" x1="153.716" y1="160.334" x2="153.716" y2="192.206" gradientUnits="userSpaceOnUse">
<stop offset="0.260417" stop-color="white"/>
<stop offset="1" stop-color="#AEAEAE" stop-opacity="0.77"/>
</linearGradient>
</defs>
</svg>
