<svg width="93" height="81" viewBox="0 0 93 81" fill="none" xmlns="http://www.w3.org/2000/svg">
<path d="M41.193 70.5813C41.193 75.9187 45.4995 80.2465 50.8109 80.2465C56.1222 80.2465 60.4288 75.9187 60.4288 70.5813C60.4288 65.2438 56.1222 60.916 50.8109 60.916C45.4995 60.916 41.193 65.2438 41.193 70.5813ZM15.3851 42.6364C15.3851 49.3583 20.8102 54.8101 27.4991 54.8101C36.8643 54.8101 37.3793 44.4717 50.6213 44.4717C60.8964 44.4717 63.4051 51.6667 68.8871 51.6667C73.8509 51.6667 77.8731 47.6215 77.8731 42.6364C77.8731 37.6514 73.8509 33.6062 68.8871 33.6062C63.2314 33.6062 60.7985 40.6424 50.6213 40.6424C37.5657 40.6424 36.8516 30.4596 27.4991 30.4596C20.8102 30.4596 15.3851 35.9114 15.3851 42.6364ZM73.3896 12.1768C73.3896 17.5143 77.6961 21.8421 83.0075 21.8421C88.3188 21.8421 92.6254 17.5143 92.6254 12.1768C92.6254 6.83935 88.3188 2.51157 83.0075 2.51157C77.6961 2.51157 73.3896 6.83618 73.3896 12.1768ZM27.8846 10.1828C17.7074 10.1828 15.2745 3.14661 9.6188 3.14661C4.65502 3.14661 0.632812 7.18863 0.632812 12.1768C0.632812 17.1651 4.65502 21.2071 9.6188 21.2071C15.1007 21.2071 17.6095 14.0121 27.8846 14.0121C41.1234 14.0121 41.6385 24.3537 51.0068 24.3537C57.6957 24.3537 63.1208 18.9019 63.1208 12.1768C63.1208 5.4518 57.6957 0 51.0068 0C41.6543 0 40.9402 10.1828 27.8846 10.1828Z" fill="url(#paint0_linear_1264_5140)"/>
<defs>
<linearGradient id="paint0_linear_1264_5140" x1="-46.5245" y1="39.9024" x2="172.938" y2="39.9024" gradientUnits="userSpaceOnUse">
<stop/>
<stop offset="0.482292" stop-color="white" stop-opacity="0.45"/>
<stop offset="1" stop-color="white" stop-opacity="0"/>
</linearGradient>
</defs>
</svg>
