<svg width="14" height="20" viewBox="0 0 14 20" fill="none" xmlns="http://www.w3.org/2000/svg">
<path d="M0.416321 13.7109C0.416321 15.1891 0.972938 16.248 2.05283 16.8425C2.5644 17.1165 2.84106 17.4325 3.03727 18.0424L3.35885 19.1386C3.5315 19.7109 3.93403 19.9858 4.53534 19.9858H8.86435C9.48628 19.9858 9.86355 19.7194 10.0408 19.1386L10.3746 18.0424C10.5586 17.4325 10.8437 17.1165 11.3468 16.8425C12.4267 16.248 12.9833 15.1891 12.9833 13.7109V6.27857C12.9833 4.80041 12.4267 3.7415 11.3468 3.14704C10.8437 2.87295 10.5586 2.55709 10.3746 1.947L10.0408 0.850859C9.8804 0.287038 9.47786 0.00366211 8.86435 0.00366211H4.53534C3.93403 0.00366211 3.5315 0.278613 3.35885 0.850859L3.03727 1.947C2.84949 2.54866 2.57283 2.88137 2.05283 3.14704C0.981362 3.71623 0.416321 4.78356 0.416321 6.27857V13.7109ZM1.65531 13.5386V6.45463C1.65531 4.95266 2.53511 4.05223 4.00338 4.05223H9.40009C10.8768 4.05223 11.7444 4.95266 11.7444 6.45463V13.5386C11.7444 15.0368 10.8768 15.9373 9.40009 15.9373H4.00338C2.53511 15.9373 1.65531 15.0368 1.65531 13.5386ZM12.7586 9.34381H13.1186C13.5897 9.34381 13.9051 9.01245 13.9051 8.50004V7.18779C13.9051 6.66695 13.5897 6.33559 13.1186 6.33559H12.7586V9.34381Z" fill="#FEFEFE"/>
<path d="M3.97063 8.00214C3.76429 8.2506 3.79714 8.61822 4.05317 8.84141L5.98649 10.4649C6.38145 10.7895 6.74443 10.7895 7.11413 10.4649L10.4099 7.58508C10.6537 7.37032 10.6537 6.98964 10.4061 6.74582C10.1867 6.53485 9.82286 6.51885 9.57989 6.7496L6.53809 9.39228L4.79768 7.91583C4.55765 7.72548 4.19759 7.75454 3.97063 8.00214Z" fill="#FEFEFE"/>
</svg>
