<svg width="15" height="16" viewBox="0 0 15 16" fill="none" xmlns="http://www.w3.org/2000/svg">
<path d="M7.66667 1.33398C9.33419 3.15955 10.2818 5.52867 10.3333 8.00065C10.2818 10.4726 9.33419 12.8417 7.66667 14.6673M7.66667 1.33398C5.99915 3.15955 5.0515 5.52867 5 8.00065C5.0515 10.4726 5.99915 12.8417 7.66667 14.6673M7.66667 1.33398C3.98477 1.33398 1 4.31875 1 8.00065C1 11.6825 3.98477 14.6673 7.66667 14.6673M7.66667 1.33398C11.3486 1.33398 14.3333 4.31875 14.3333 8.00065C14.3333 11.6825 11.3486 14.6673 7.66667 14.6673M1.33335 6.00065H14M1.33333 10.0007H14" stroke="#667085" stroke-width="1.33333" stroke-linecap="round" stroke-linejoin="round"/>
</svg>
