<svg width="48" height="48" viewBox="0 0 48 48" fill="none" xmlns="http://www.w3.org/2000/svg">
<circle cx="24" cy="24" r="24" fill="#8720CC" fill-opacity="0.5"/>
<mask id="mask0_1264_5463" style="mask-type:alpha" maskUnits="userSpaceOnUse" x="5" y="5" width="38" height="38">
<rect x="5" y="5" width="38" height="38" fill="#D9D9D9"/>
</mask>
<g mask="url(#mask0_1264_5463)">
<path d="M24.0042 26.216L16.2458 33.9743C15.9556 34.2646 15.5861 34.4097 15.1375 34.4097C14.6889 34.4097 14.3194 34.2646 14.0292 33.9743C13.7389 33.684 13.5938 33.3146 13.5938 32.866C13.5938 32.4173 13.7389 32.0479 14.0292 31.7576L21.7875 23.9993L14.0292 16.241C13.7389 15.9507 13.5938 15.5812 13.5938 15.1326C13.5938 14.684 13.7389 14.3146 14.0292 14.0243C14.3194 13.734 14.6889 13.5889 15.1375 13.5889C15.5861 13.5889 15.9556 13.734 16.2458 14.0243L24.0042 21.7826L31.7625 14.0243C32.0528 13.734 32.4222 13.5889 32.8708 13.5889C33.3194 13.5889 33.6889 13.734 33.9792 14.0243C34.2694 14.3146 34.4146 14.684 34.4146 15.1326C34.4146 15.5812 34.2694 15.9507 33.9792 16.241L26.2208 23.9993L33.9792 31.7576C34.2694 32.0479 34.4146 32.4173 34.4146 32.866C34.4146 33.3146 34.2694 33.684 33.9792 33.9743C33.6889 34.2646 33.3194 34.4097 32.8708 34.4097C32.4222 34.4097 32.0528 34.2646 31.7625 33.9743L24.0042 26.216Z" fill="white"/>
</g>
</svg>
