<svg width="58" height="63" viewBox="0 0 58 63" fill="none" xmlns="http://www.w3.org/2000/svg">
<g filter="url(#filter0_ii_2_3568)">
<path fill-rule="evenodd" clip-rule="evenodd" d="M35.6945 0.207031L51.2673 15.7798V6.20407C51.2674 6.21852 51.2674 6.23299 51.2674 6.24746V56.4586C51.2674 59.7946 48.563 62.499 45.227 62.499H6.85135C3.51531 62.499 0.810928 59.7946 0.810928 56.4586V6.24746C0.810928 2.91142 3.51532 0.207031 6.85136 0.207031H35.6945Z" fill="#FA4E4E"/>
</g>
<path d="M36.1556 42.1585C34.0537 42.0024 32.0299 41.2218 30.3952 39.8167C27.2035 40.5191 24.1671 41.5336 21.1312 42.783C18.7182 47.0761 16.4605 49.2617 14.5142 49.2617C14.1249 49.2617 13.6581 49.1839 13.3466 48.9495C12.4901 48.5594 12.0233 47.7006 12.0233 46.8421C12.0233 46.1394 12.1791 44.1881 19.5743 40.9874C21.2873 37.865 22.6102 34.6648 23.7003 31.3084C22.766 29.435 20.7423 24.8293 22.143 22.4879C22.6102 21.629 23.5446 21.1607 24.5569 21.2389C25.3351 21.2389 26.1134 21.629 26.5806 22.2535C27.5928 23.6586 27.5149 26.6248 26.1912 30.9962C27.4371 33.3346 29.0688 35.4459 31.0177 37.241C32.6529 36.9283 34.2873 36.6943 35.922 36.6943C39.5809 36.7722 40.126 38.4895 40.0481 39.5045C40.0481 42.1585 37.4789 42.1585 36.1556 42.1585ZM14.3589 46.9978L14.5925 46.92C15.6822 46.5299 16.5383 45.7493 17.1612 44.7343C15.9933 45.2026 15.0593 45.9832 14.3589 46.9982V46.9978ZM24.7122 23.5807H24.4786C24.4007 23.5807 24.245 23.5807 24.1671 23.6586C23.8557 24.9854 24.0893 26.3905 24.6343 27.6394C25.1015 26.3126 25.1015 24.9075 24.7122 23.5807ZM25.2573 34.8992L25.1794 35.0549L25.1015 34.977C24.4007 36.7726 23.6221 38.5678 22.766 40.2851L22.9217 40.2072V40.3629C24.6528 39.7353 26.4207 39.2139 28.2153 38.8018L28.1375 38.7239H28.3711C27.2031 37.5528 26.1134 36.226 25.2573 34.8992ZM35.8442 39.0361C35.1434 39.0361 34.5208 39.0361 33.8201 39.1919C34.5987 39.5824 35.3774 39.7385 36.1556 39.8167C36.7007 39.8946 37.2457 39.8167 37.7125 39.6606C37.7125 39.4262 37.4011 39.0361 35.8442 39.0361Z" fill="white"/>
<path d="M49.8062 14.3198L37.1543 14.3198L51.2673 28.4328L51.2673 15.7798L49.8062 14.3198Z" fill="url(#paint0_linear_2_3568)"/>
<path d="M41.7348 15.7803L51.2674 15.7803L35.6944 0.207284L35.6944 9.73984C35.6944 13.0759 38.3988 15.7803 41.7348 15.7803Z" fill="#FDB8B8"/>
<defs>
<filter id="filter0_ii_2_3568" x="0.810928" y="-0.170496" width="50.4565" height="63.047" filterUnits="userSpaceOnUse" color-interpolation-filters="sRGB">
<feFlood flood-opacity="0" result="BackgroundImageFix"/>
<feBlend mode="normal" in="SourceGraphic" in2="BackgroundImageFix" result="shape"/>
<feColorMatrix in="SourceAlpha" type="matrix" values="0 0 0 0 0 0 0 0 0 0 0 0 0 0 0 0 0 0 127 0" result="hardAlpha"/>
<feOffset dy="-0.755054"/>
<feGaussianBlur stdDeviation="0.188763"/>
<feComposite in2="hardAlpha" operator="arithmetic" k2="-1" k3="1"/>
<feColorMatrix type="matrix" values="0 0 0 0 0 0 0 0 0 0 0 0 0 0 0 0 0 0 0.3 0"/>
<feBlend mode="normal" in2="shape" result="effect1_innerShadow_2_3568"/>
<feColorMatrix in="SourceAlpha" type="matrix" values="0 0 0 0 0 0 0 0 0 0 0 0 0 0 0 0 0 0 127 0" result="hardAlpha"/>
<feOffset dy="0.755054"/>
<feGaussianBlur stdDeviation="0.188763"/>
<feComposite in2="hardAlpha" operator="arithmetic" k2="-1" k3="1"/>
<feColorMatrix type="matrix" values="0 0 0 0 1 0 0 0 0 1 0 0 0 0 1 0 0 0 0.3 0"/>
<feBlend mode="normal" in2="effect1_innerShadow_2_3568" result="effect2_innerShadow_2_3568"/>
</filter>
<linearGradient id="paint0_linear_2_3568" x1="40.3175" y1="11.1566" x2="54.4305" y2="25.2696" gradientUnits="userSpaceOnUse">
<stop stop-opacity="0.2"/>
<stop offset="1" stop-opacity="0"/>
</linearGradient>
</defs>
</svg>
